<?xml version="1.0" encoding="UTF-8"?>
<svg width="87px" height="87px" viewBox="0 0 87 87" version="1.1" xmlns="http://www.w3.org/2000/svg" xmlns:xlink="http://www.w3.org/1999/xlink">
    <!-- Generator: Sketch 49.3 (51167) - http://www.bohemiancoding.com/sketch -->
    <title>Combined Shape</title>
    <desc>Created with Sketch.</desc>
    <defs></defs>
    <g id="Page-1" stroke="none" stroke-width="1" fill="none" fill-rule="evenodd">
        <g id="Artboard-2-Copy-5" transform="translate(-254.000000, -21.000000)" fill="#00A5CF" fill-rule="nonzero">
            <path d="M337.35781,34.3524497 L298.425718,21.1329043 C297.504248,20.9556986 296.759984,20.9556986 296.033441,21.1329043 L257.083627,34.3701702 C253.911645,35.3448016 254.000248,37.843402 254.000248,37.9142843 L254.000248,88.7900413 C254.000248,90.2608487 254.921718,91.5544503 256.392525,92.103788 L296.033441,107.39664 C296.742263,107.69789 298.248512,107.573846 298.620644,107.39664 L338.261559,92.1215085 C339.732367,91.5721709 340.653836,90.2785692 340.653836,88.8077619 L340.653836,37.9142843 C340.653836,36.8156089 339.980455,34.6891405 337.35781,34.3524497 Z M297.327042,28.3274558 L326.45966,38.09149 L297.327042,49.1668463 L268.194425,38.09149 L297.327042,28.3274558 Z M261.1948,86.2205587 L261.1948,43.2658965 L293.641164,55.6171339 L293.641164,98.7490018 L261.1948,86.2205587 Z" id="Combined-Shape"></path>
        </g>
    </g>
</svg>