<?xml version="1.0" encoding="UTF-8"?>
<svg width="191px" height="73px" viewBox="0 0 191 73" version="1.1" xmlns="http://www.w3.org/2000/svg" xmlns:xlink="http://www.w3.org/1999/xlink">
    <!-- Generator: Sketch 49.3 (51167) - http://www.bohemiancoding.com/sketch -->
    <title>Group 2</title>
    <desc>Created with Sketch.</desc>
    <defs></defs>
    <g id="Landin-page" stroke="none" stroke-width="1" fill="none" fill-rule="evenodd">
        <g id="V1" transform="translate(-593.000000, -1881.000000)" fill="#FFFFFF">
            <g id="Pricing" transform="translate(0.000000, 1730.000000)">
                <g id="Right-pricing" transform="translate(554.000000, 151.000000)">
                    <g id="Group-2" transform="translate(39.000000, 0.000000)">
                        <g id="Frontfill-pro">
                            <text id="pro" font-family="Roboto-Light, Roboto" font-size="24" font-weight="300">
                                <tspan x="157" y="30">pro</tspan>
                            </text>
                            <g id="logo-hvid-copy" fill-rule="nonzero">
                                <path d="M15.9666093,21.820327 L6.47910597,21.820327 L6.47910597,34.8092976 L0,34.8092976 L0,3.02452259 L20.4739749,3.02452259 L20.4739749,8.32926183 L6.47910597,8.32926183 L6.47910597,16.537418 L15.9666093,16.537418 L15.9666093,21.820327 Z M33.62656,17.1050033 C32.777073,16.9885749 32.0283838,16.9303617 31.3804699,16.9303617 C29.019184,16.9303617 27.471413,17.738071 26.7371106,19.3535141 L26.7371106,34.8092976 L20.4955719,34.8092976 L20.4955719,11.1890184 L26.3915583,11.1890184 L26.5643345,14.0051145 C27.8169679,11.8366369 29.5519111,10.7524143 31.7692163,10.7524143 C32.4603244,10.7524143 33.1082285,10.8470109 33.7129481,11.036207 L33.62656,17.1050033 Z M34.8791871,22.780856 C34.8791871,20.4377358 35.3255211,18.349334 36.2182024,16.5155878 C37.1108836,14.6818416 38.3958935,13.2628926 40.0732704,12.2586983 C41.7506474,11.2545039 43.6979592,10.7524143 45.9152643,10.7524143 C49.068445,10.7524143 51.6420642,11.727487 53.6361989,13.6776615 C55.6303337,15.627836 56.7425691,18.2765408 56.9729385,21.6238552 L57.0161325,23.2392902 C57.0161325,26.8631219 56.0154808,29.7701482 54.0141468,31.9604561 C52.0128128,34.1507641 49.3276103,35.2459016 45.9584583,35.2459016 C42.5893064,35.2459016 39.9005043,34.1544024 37.8919714,31.9713712 C35.8834385,29.7883401 34.8791871,26.8194622 34.8791871,23.0646486 L34.8791871,22.780856 Z M41.1207259,23.2392902 C41.1207259,25.4805356 41.5382641,27.1941893 42.373353,28.3803029 C43.208442,29.5664166 44.4034652,30.1594644 45.9584583,30.1594644 C47.4702573,30.1594644 48.6508826,29.5736932 49.5003696,28.4021331 C50.3498566,27.2305731 50.7745938,25.3568327 50.7745938,22.780856 C50.7745938,20.5832712 50.3498566,18.8805325 49.5003696,17.6725885 C48.6508826,16.4646446 47.4558594,15.8606817 45.9152643,15.8606817 C44.3890673,15.8606817 43.208442,16.4610063 42.373353,17.6616734 C41.5382641,18.8623406 41.1207259,20.7215276 41.1207259,23.2392902 Z M66.6052094,11.1890184 L66.7995826,13.9177937 C68.4697606,11.8075303 70.7086293,10.7524143 73.5162557,10.7524143 C75.9927262,10.7524143 77.8356535,11.4873571 79.0450928,12.9572648 C80.2545322,14.4271724 80.8736403,16.6247242 80.9024365,19.549986 L80.9024365,34.8092976 L74.6608978,34.8092976 L74.6608978,19.7027974 C74.6608978,18.3638716 74.3729401,17.3924373 73.797017,16.7884653 C73.2210939,16.1844933 72.2636355,15.8825119 70.9246134,15.8825119 C69.1680472,15.8825119 67.8506421,16.6392847 66.9723587,18.152853 L66.9723587,34.8092976 L60.73082,34.8092976 L60.73082,11.1890184 L66.6052094,11.1890184 Z M93.1047528,5.38218448 L93.1047528,11.1890184 L97.1002015,11.1890184 L97.1002015,15.8170213 L93.1047528,15.8170213 L93.1047528,27.6053307 C93.1047528,28.4785432 93.2703283,29.1043361 93.6014843,29.4827282 C93.9326402,29.8611202 94.5661468,30.0503134 95.502022,30.0503134 C96.1931301,30.0503134 96.8050397,29.9993768 97.3377687,29.897502 L97.3377687,34.6783164 C96.1139316,35.0567085 94.8541176,35.2459016 93.5582902,35.2459016 C89.1812723,35.2459016 86.9496028,33.0119666 86.863214,28.5440294 L86.863214,15.8170213 L83.4508849,15.8170213 L83.4508849,11.1890184 L86.863214,11.1890184 L86.863214,5.38218448 L93.1047528,5.38218448 Z M123.103013,34.8092976 L117.906905,34.8092976 L116.839878,34.8092976 L116.839878,22.2351009 L123.103013,22.2351009 L123.103013,34.8092976 Z M116.105579,14.3107373 C116.105579,13.3647572 116.418732,12.5861544 117.045049,11.9749057 C117.671366,11.3636569 118.52444,11.0580372 119.604296,11.0580372 C120.669754,11.0580372 121.519229,11.3636569 122.152745,11.9749057 C122.78626,12.5861544 123.103013,13.3647572 123.103013,14.3107373 C123.103013,15.2712711 122.782661,16.0571505 122.141946,16.6683992 C121.501231,17.279648 120.655356,17.5852677 119.604296,17.5852677 C118.553236,17.5852677 117.707361,17.279648 117.066646,16.6683992 C116.425932,16.0571505 116.105579,15.2712711 116.105579,14.3107373 Z M134.830195,34.8092976 L128.567059,34.8092976 L128.567059,11.7566036 L134.830195,11.7566036 L134.830195,34.8092976 Z M146.557377,34.8092976 L140.294241,34.8092976 L140.294241,1.27810639 L146.557377,1.27810639 L146.557377,34.8092976 Z M102.888203,34.8092976 L102.888203,15.8170213 L99.4110826,15.8170213 L99.4110826,11.1890184 L102.888203,11.1890184 L102.888203,9.18063973 C102.888203,6.53189525 103.640492,4.4762384 105.145091,3.01360749 C106.649691,1.55097658 108.75538,0.819672131 111.46222,0.819672131 C112.326105,0.819672131 113.384348,0.965205395 114.636982,1.25627618 L114.572191,6.14624157 C114.053859,6.01525972 113.420353,5.94976974 112.671653,5.94976974 C110.324765,5.94976974 109.151339,7.06309897 109.151339,9.28979074 L109.151339,11.1890184 L113.794698,11.1890184 L113.794698,15.8170213 L109.151339,15.8170213 L109.151339,34.8092976 L102.888203,34.8092976 Z" id="FrontFill-Copy-4"></path>
                            </g>
                        </g>
                        <text id="(coming-soon!)" font-family="Roboto-Light, Roboto" font-size="24" font-weight="300">
                            <tspan x="17.0566406" y="67">(coming soon!)</tspan>
                        </text>
                    </g>
                </g>
            </g>
        </g>
    </g>
</svg>