<svg xmlns="http://www.w3.org/2000/svg" viewBox="0 0 225.64 394.06"><defs><style>.cls-1{fill:#e1d58b;}.cls-2{fill:#f7e041;}.cls-3,.cls-5{fill:#1c1c1c;}.cls-3{opacity:0.1;}.cls-4,.cls-6{opacity:0.2;}.cls-6{fill:#eb974e;}.cls-7{fill:#8b372f;}.cls-8{fill:#292929;}.cls-9{fill:#fff;}.cls-10{fill:#ecc19c;}.cls-11{fill:#cf9e76;}.cls-12{fill:#a03f35;}.cls-13{fill:#722d26;}.cls-14{fill:#dfb28b;}.cls-15{fill:#b9493e;}.cls-16{fill:#e2413e;}.cls-17{fill:#f56462;}.cls-18{fill:#d35345;}.cls-19{fill:#424242;}.cls-20{fill:#353535;}.cls-21{fill:#d1d1d1;}.cls-22{fill:#b5292a;}.cls-23{fill:#e86765;}.cls-24{fill:#0e0e0e;}.cls-25{fill:#151515;}.cls-26{fill:#2d2d2d;}.cls-27{fill:#f0d0b4;}.cls-28{fill:#5d5d5d;}</style></defs><title>happy-girl</title><g id="Layer_2" data-name="Layer 2"><g id="Objects"><ellipse class="cls-1" cx="115.41" cy="382.71" rx="75.05" ry="11.35"/><ellipse class="cls-2" cx="115.41" cy="382.71" rx="75.05" ry="11.35"/><ellipse class="cls-3" cx="115.41" cy="378.74" rx="64.87" ry="7.37"/><path class="cls-2" d="M191.1,110.94A117,117,0,0,1,91.92,301a117,117,0,1,0,24.9-232.41A116.55,116.55,0,0,1,191.1,110.94Z"/><path class="cls-2" d="M116.52,56.5A105.18,105.18,0,0,0,11.42,157.71,105.17,105.17,0,0,1,194.56,97.1a105.17,105.17,0,0,0-175.3,78.39c0,.41,0,.81,0,1.22a88.51,88.51,0,0,0,39.92,73.16,105.19,105.19,0,0,0,162.51-87C222.32,104.8,174.55,56.49,116.52,56.5Z"/><g class="cls-4"><path class="cls-5" d="M200.08,180.19c.08-.38.15-.76.23-1.14.29-1.54.55-3.14.77-4.77,2.17-15.93,1.1-35.22,1.1-35.22a4.13,4.13,0,0,0,0-.5h0a6.92,6.92,0,0,0-6.72-6.61h0a6.92,6.92,0,0,0-7.1,6.73l-.3,10.83h0l-.73,27.3c.23,2.83-1.36,2.07-2.12.89l1.78-1.83a1.17,1.17,0,0,0-.06-1.69l-3.92-3.5a1.16,1.16,0,0,0-1.61.08l-.46.49-17.37-26.17-17.42-8a32.25,32.25,0,0,0-5.54-2h0c-.75-1.22-4.36-1.92-4.45-1.94v-5.36l.64-.21c.27-.09.55-.17.82-.27l.64-.24.72-.29.63-.26.72-.33.6-.28.82-.42.72-.39c.31-.17.61-.34.9-.52l.55-.34.67-.43.55-.37.64-.46.52-.38.68-.54.44-.35c.35-.29.69-.58,1-.89l.4-.37.64-.61.43-.44.58-.6.41-.46.58-.66.35-.42c.3-.36.58-.72.86-1.09l.19-.27c.22-.3.44-.6.64-.9s.21-.31.31-.46.33-.51.48-.76.21-.33.3-.5.31-.52.46-.79.18-.31.26-.47c.18-.33.35-.67.52-1,0-.09.09-.18.14-.28.2-.43.4-.86.59-1.3.06-.14.11-.29.17-.43.13-.31.25-.62.37-.94l.19-.51.3-.9c.06-.17.11-.34.16-.51.11-.34.2-.69.3-1,0-.14.07-.27.11-.4q.18-.72.33-1.44l.06-.32c.07-.38.14-.77.2-1.16,0-.17,0-.34.08-.51s.06-.38.08-.57c.25.23.51.47.76.73a14.52,14.52,0,0,1,2.05,3.94,8.83,8.83,0,0,0-.73-4.13,6.13,6.13,0,0,0-1.92-2.21v0a8.71,8.71,0,0,1,2.59.88c2.57,1.35,4.74,5.7,4.74,5.7a9.9,9.9,0,0,0-2.32-6.14,15.06,15.06,0,0,0-2.95-2.23,9,9,0,0,0,.54-17.35c.21-.81.42-1.67.62-2.55a105.25,105.25,0,0,0-72-1.31c.33,1.39.67,2.72,1,4a9,9,0,0,0,.84,17.26,15.06,15.06,0,0,0-3,2.23,9.87,9.87,0,0,0-2.33,6.14s2.17-4.35,4.75-5.7A8.66,8.66,0,0,1,94.16,99v0a6.11,6.11,0,0,0-1.91,2.21,8.76,8.76,0,0,0-.74,4.13,14.65,14.65,0,0,1,2.06-3.94c.25-.26.51-.51.76-.74,0,.28.07.56.11.84,0,0,0,.06,0,.09.08.48.16,1,.26,1.43l.09.44q.11.51.24,1c0,.15.07.3.11.45.11.41.22.81.34,1.2l.06.2c.14.45.29.89.45,1.33,0,.15.11.3.16.44l.36.91c.07.16.13.32.2.47l.45,1,.14.3c.2.41.4.81.62,1.2.08.16.17.31.25.46l.45.78.29.49.51.79c.09.13.17.26.25.39.25.36.5.71.76,1.06l.36.47.49.63.41.49c.17.21.34.41.52.61l.42.47c.27.3.55.59.83.87s.33.32.49.48l.5.48.53.48.51.44.77.64.72.57.6.44.51.36.64.43.5.33c.4.25.8.49,1.21.72l.48.28.7.37.52.27.72.34.54.24c.75.34,1.51.65,2.29.93v5.82s-3.69.7-4.46,1.94h0a32.55,32.55,0,0,0-5.54,2l-17.42,8L72.76,186.16l-1.26-.51a.93.93,0,0,0-1.23.76l-1.14,5a1.29,1.29,0,0,0,0,.44,1.16,1.16,0,0,0,.69,1l.37.14L69,196l0,.1a13.58,13.58,0,0,0-.83,4.23c0,.35,0,.71,0,1.06s0,.71.09,1.06a13.47,13.47,0,0,0,.43,2.06,13.22,13.22,0,0,0,1.67,3.62l-4.8,4.07a2.6,2.6,0,0,0-.3,3.67l.33.4h0l2.82,3.32h0l13.26,15.65h0l4.27,5a2.57,2.57,0,0,0,3.53.39l-1.88,7.23h0L86.27,253a3.6,3.6,0,0,0,3.49,4.51h4.61l.09,2.88h0l.14,4.13a105.51,105.51,0,0,0,21.92,2.31c2.94,0,5.84-.13,8.72-.37l1.39-14L128,266.23A104.38,104.38,0,0,0,158.87,258v-.44h1q2.93-1.32,5.74-2.82a3.86,3.86,0,0,0,.1-.84,3.63,3.63,0,0,0-.12-.85l-1.32-5.1h0l-6.48-25,4.11-55.23,9.31,13.92-1.58,1.69a1.18,1.18,0,0,0,0,1.63l3.52,3.51a1.16,1.16,0,0,0,1.64,0l.63-.65.56.61.58.62.32.33c.52.54,1.07,1.1,1.51,1.52l.25.23.21.18a19.73,19.73,0,0,0,4.66,3.13,9.1,9.1,0,0,0,1.93.56c.33.05.67.1,1,.13.64.05,1.35.07,2.15.07h0a11.3,11.3,0,0,0,3.15-.4C195.93,193.6,198.5,187.72,200.08,180.19ZM85.36,195.46l.75-2.72a1.26,1.26,0,0,0-.49-1.36L90.73,178h0l.91,12.13Z"/><path class="cls-5" d="M163.22,73.13c.33-1.64.63-3.35.88-5.07A103.51,103.51,0,0,0,116.52,56.5a105.19,105.19,0,0,0-28.23,3.83c0,1.42,0,2.84.14,4.27,0,.37.08.73.11,1.1a105.47,105.47,0,0,1,74.68,7.43Z"/></g><path class="cls-6" d="M100.32,119.51a89.08,89.08,0,0,0-81,51.92c-.05,1.35-.09,2.7-.09,4.06,0,.41,0,.81,0,1.22a88.51,88.51,0,0,0,39.92,73.16,105.19,105.19,0,0,0,122.91-6,89.1,89.1,0,0,0-81.78-124.4Z"/><path class="cls-7" d="M84.17,89a5.91,5.91,0,0,0-2.43,2.53A8.76,8.76,0,0,0,81,95.68a14.65,14.65,0,0,1,2.06-3.94,22.5,22.5,0,0,1,2.26-2Z"/><path class="cls-7" d="M83.43,86.52a18.69,18.69,0,0,0-4.78,3.21,9.87,9.87,0,0,0-2.33,6.14s2.17-4.35,4.74-5.7a8,8,0,0,1,4.62-1Z"/><path class="cls-7" d="M148.06,89a6,6,0,0,1,2.43,2.53,8.76,8.76,0,0,1,.74,4.13,14.65,14.65,0,0,0-2.06-3.94,22.5,22.5,0,0,0-2.26-2Z"/><path class="cls-7" d="M148.8,86.52a18.69,18.69,0,0,1,4.78,3.21,9.87,9.87,0,0,1,2.33,6.14s-2.17-4.35-4.74-5.7a8,8,0,0,0-4.62-1Z"/><polygon class="cls-8" points="116.11 228.96 83.56 228.96 83.56 238.44 87.19 352.44 105.19 352.44 116.11 242.8 127.04 352.44 145.03 352.44 148.67 238.44 148.67 228.96 116.11 228.96"/><path class="cls-9" d="M137.82,229H83.56V148.35c0-13.13,10.65-21.66,23.78-21.66h17.55c13.13,0,23.78,8.53,23.78,21.66Z"/><path class="cls-10" d="M115.41,149.47h0a10.23,10.23,0,0,1-10.22-10.23V113.81h20.45v25.43A10.23,10.23,0,0,1,115.41,149.47Z"/><path class="cls-11" d="M105.19,121.64a72.29,72.29,0,0,0,8.87.56c6.41-.22,8.21-.89,11.58-2.2v-6.19H105.19Z"/><path class="cls-7" d="M116.11,0A16.44,16.44,0,0,0,99.68,16.44,17.08,17.08,0,0,0,99.9,19a17.86,17.86,0,0,1-1.15-2.46,11.41,11.41,0,0,1-.64-5S95,17.49,97.79,23.26c1.89,4,2.75,1.39,3.11-.62A16.43,16.43,0,1,0,116.11,0Z"/><path class="cls-12" d="M116.11,0c-.36,0-.72,0-1.08.05-1.78.38-4,1.14-5.21,2.74-2.21,2.93.77,7.16.77,7.16a3.22,3.22,0,0,1-2.07-1.4,10.36,10.36,0,0,1-1-3.72s-1.19,2.72.93,7,8.33,6.73,11.15,7.44c2,.49,8.43,1.32,12.54.59a16.26,16.26,0,0,0,.37-3.44A16.44,16.44,0,0,0,116.11,0Z"/><path class="cls-13" d="M102.47,15.25a15.07,15.07,0,0,1,.12-8.15,16.39,16.39,0,0,0-2.91,9.34A17.08,17.08,0,0,0,99.9,19a17.86,17.86,0,0,1-1.15-2.46,11.41,11.41,0,0,1-.64-5S95,17.49,97.79,23.26c1.89,4,2.75,1.39,3.11-.62a16.6,16.6,0,0,0,3.37,5.18,28.1,28.1,0,0,0,6-1.29S104.07,21.15,102.47,15.25Z"/><circle class="cls-10" cx="83.56" cy="78.76" r="8.97"/><circle class="cls-14" cx="148.67" cy="78.76" r="8.97"/><path class="cls-10" d="M116.11,119.51h0A32.55,32.55,0,0,1,83.56,87V37.74L97.92,22l2.3-1,48.45,16.82V87A32.55,32.55,0,0,1,116.11,119.51Z"/><path class="cls-15" d="M100.22,44.36a3.72,3.72,0,0,0,4.21,3.69c7.08-.93,21.4-2.11,29.76,2.05,15.57,7.76,14.48,28.66,14.48,28.66S156,57.27,154,43.69,141.3,18,127.28,16.15c-21.54-2.81-27.06,4.77-27.06,4.77Z"/><path class="cls-7" d="M102.78,75.63A3.75,3.75,0,1,1,99,71.89,3.74,3.74,0,0,1,102.78,75.63Z"/><path class="cls-7" d="M136.29,75.63a3.74,3.74,0,1,1-3.74-3.74A3.73,3.73,0,0,1,136.29,75.63Z"/><path class="cls-9" d="M132.87,74.51a1.44,1.44,0,1,1-1.44-1.44A1.45,1.45,0,0,1,132.87,74.51Z"/><path class="cls-16" d="M115.41,110.8h0a10.23,10.23,0,0,1-10.22-10.23V91.83a1.22,1.22,0,0,1,1.22-1.22h18a1.22,1.22,0,0,1,1.22,1.22v8.74A10.23,10.23,0,0,1,115.41,110.8Z"/><path class="cls-9" d="M107.13,91.2h16.53a1.45,1.45,0,0,1,1.45,1.45v.73a2.23,2.23,0,0,1-2.23,2.23h-15a2.23,2.23,0,0,1-2.23-2.23v-.73A1.45,1.45,0,0,1,107.13,91.2Z"/><path class="cls-17" d="M115.39,99.81h0a9.71,9.71,0,0,0-8.88,5.78,10.2,10.2,0,0,0,8.9,5.21h0a10.22,10.22,0,0,0,8.88-5.17A9.71,9.71,0,0,0,115.39,99.81Z"/><path class="cls-7" d="M105.49,68.76s-.2-.22-.57-.57a13.78,13.78,0,0,0-1.6-1.31,9.65,9.65,0,0,0-2.49-1.24,7.22,7.22,0,0,0-1.48-.32c-.26,0-.52,0-.78,0h-.36l-.44,0c-.6,0-1.12.1-1.64.17s-1,.2-1.54.35a10.8,10.8,0,0,0-1.39.49,9.43,9.43,0,0,0-1.19.6,8,8,0,0,0-2.17,1.82,3.54,3.54,0,0,1,.29-.77,6.23,6.23,0,0,1,1.34-1.76,6.57,6.57,0,0,1,1.18-.91,8.1,8.1,0,0,1,1.5-.76A10.3,10.3,0,0,1,95.86,64a13.11,13.11,0,0,1,1.8-.24l.43,0h.51a7.45,7.45,0,0,1,1,.09,7.18,7.18,0,0,1,1.76.52,7.79,7.79,0,0,1,2.58,1.85A8,8,0,0,1,105.16,68,5.05,5.05,0,0,1,105.49,68.76Z"/><path class="cls-7" d="M124.73,68.76a5.05,5.05,0,0,1,.33-.75,8,8,0,0,1,1.27-1.78,7.84,7.84,0,0,1,2.57-1.85,7.26,7.26,0,0,1,1.77-.52,7.45,7.45,0,0,1,1-.09h.51l.43,0a13.11,13.11,0,0,1,1.8.24,10.3,10.3,0,0,1,1.71.52,8.43,8.43,0,0,1,1.5.76,6.57,6.57,0,0,1,1.18.91A6.23,6.23,0,0,1,140.09,68a3.54,3.54,0,0,1,.29.77,8.17,8.17,0,0,0-2.17-1.82,10.16,10.16,0,0,0-1.19-.6,10.8,10.8,0,0,0-1.39-.49c-.49-.15-1-.23-1.54-.35s-1-.14-1.65-.17l-.43,0h-.37c-.26,0-.51,0-.77,0a7.46,7.46,0,0,0-1.49.32,9.58,9.58,0,0,0-2.48,1.24,13.78,13.78,0,0,0-1.6,1.31C124.93,68.54,124.73,68.76,124.73,68.76Z"/><path class="cls-14" d="M103.62,117c0-.08-16.34-10.9-15.22-42.51A46.29,46.29,0,0,1,96.62,49.9c-1.9-2.83-7.64-1.2-13.06,5.25V87A32.56,32.56,0,0,0,103.62,117Z"/><path class="cls-15" d="M99,46.58V21.45s-12.9-3-19.9,19.5c-4.73,15.18,4.43,37.81,4.43,37.81s-1.28-24,13.06-28.86A3.52,3.52,0,0,0,99,46.58Z"/><path class="cls-12" d="M83.56,45.43c-3.79-5.85.32-14.95.59-15.54a42.85,42.85,0,0,0-5,11.06c-4.73,15.18,4.43,37.81,4.43,37.81s-1.28-24,13.06-28.86C96.62,49.9,87.48,51.48,83.56,45.43Z"/><path class="cls-12" d="M152.78,63.07s-.79-7-4.75-12.25-17.3-10.13-26.92-11.92-17-8.43-16.53-15.13c.3-4.22,4-7.19,4.06-7.2-6.38,1.57-8.42,4.35-8.42,4.35V44.36a3.72,3.72,0,0,0,4.21,3.69c7.08-.93,21.4-2.11,29.76,2.05,15.57,7.76,14.48,28.66,14.48,28.66A132.53,132.53,0,0,0,152.78,63.07Z"/><path class="cls-18" d="M142.36,28.16s-6-6.63-12.6-8.07-8.17,2.4-5,6.44,19.91,15.92,22.1,11.34C148.67,34.12,144.28,30.06,142.36,28.16Z"/><path class="cls-18" d="M93.59,25.66s-3,.25-5.83,3.68-3.4,5.92-2.51,7.76c1,2.09,7.86-.55,10-5.09C97.21,28,96.45,25.47,93.59,25.66Z"/><path class="cls-5" d="M108.25,229l-.63,17.52a4.37,4.37,0,0,1-4.37,4.2H84V247.8Z"/><path class="cls-5" d="M124,229l.63,17.52a4.37,4.37,0,0,0,4.36,4.2h19.31l.11-2.88Z"/><path class="cls-15" d="M125.79,5.64s-2.5-2.63-5.38-3S116.69,6,118,9.55s6.51,6.28,9.24,4.29S127.24,6.88,125.79,5.64Z"/><path class="cls-19" d="M105.19,124.57l5.16,89-4.1,30a4.85,4.85,0,0,1-4.8,4.18H79.24a3.6,3.6,0,0,1-3.48-4.51l7.8-30.09-5.79-77.86,17.42-8a32.79,32.79,0,0,1,10-2.77Z"/><path class="cls-8" d="M100.73,125.39l-2.22,22.32,8.82,13.57-2.14-37.83S101.49,124.15,100.73,125.39Z"/><polygon class="cls-5" points="100.43 150.67 97.28 186.19 110.35 213.58 107.33 161.28 100.43 150.67"/><path class="cls-19" d="M125.63,124.57l-5.16,89,4.1,30a4.85,4.85,0,0,0,4.8,4.18h22.2a3.6,3.6,0,0,0,3.49-4.51l-7.8-30.09,5.79-77.86-17.42-8a32.87,32.87,0,0,0-10-2.77Z"/><path class="cls-8" d="M130.09,125.39l2.22,22.32-8.83,13.57,2.15-37.83S129.32,124.15,130.09,125.39Z"/><polygon class="cls-5" points="130.39 150.67 133.54 186.19 120.47 213.58 123.48 161.28 130.39 150.67"/><polygon class="cls-5" points="96.1 352.44 99.2 249.72 83.95 250.68 87.19 352.44 96.1 352.44"/><path class="cls-5" d="M116.11,242.8s11.67,2.5,15,22.49,5,87.15,5,87.15H127Z"/><polygon class="cls-5" points="107.8 232.23 123.02 232.23 122.57 228.96 108.25 228.96 107.8 232.23"/><path class="cls-20" d="M97.27,186.19l1.59-18.51h0a11.64,11.64,0,0,1-15.1,1.66l-.52-.36,4.81,44.6-11,24.61-1.32,5.1a3.6,3.6,0,0,0,3.48,4.51h22.21a4.85,4.85,0,0,0,4.8-4.18l4.1-30Z"/><path class="cls-20" d="M133.54,186.19,132,167.68h0a11.64,11.64,0,0,0,15.1,1.66l.52-.36-4.81,44.6,11,24.61,1.32,5.1a3.6,3.6,0,0,1-3.49,4.51h-22.2a4.85,4.85,0,0,1-4.8-4.18l-4.1-30Z"/><path class="cls-21" d="M107.53,164.76s3.07-4.47,7.62-4.45,8.13,4.45,8.13,4.45l-2.81,48.82,2.1,15.38H108.25l2.1-15.38Z"/><path class="cls-14" d="M148.67,87v-8.2s-.32,13.63-6.28,24.28a35,35,0,0,1-16.68,15A32.56,32.56,0,0,0,148.67,87Z"/><rect class="cls-16" x="66.73" y="174.68" width="37.2" height="53.06" rx="2.6" ry="2.6" transform="translate(183.68 6.04) rotate(49.73)"/><path class="cls-22" d="M67.84,207.28H120.9a0,0,0,0,1,0,0v6.61a2.6,2.6,0,0,1-2.6,2.6H70.44a2.6,2.6,0,0,1-2.6-2.6v-6.61A0,0,0,0,1,67.84,207.28Z" transform="translate(-114.61 111.25) rotate(-40.28)"/><rect class="cls-23" x="50.2" y="188.89" width="53.06" height="4.36" transform="translate(-105.34 94.91) rotate(-40.28)"/><polygon class="cls-9" points="89.85 204.9 85.02 201.21 77.03 212.53 81.65 216.06 89.85 204.9"/><path class="cls-7" d="M99,75.63a3,3,0,0,1-1.22.58,4.36,4.36,0,0,1-3-.29,3.58,3.58,0,0,1-.73-.45,4,4,0,0,1-1-1.19,2.76,2.76,0,0,1-.28-.61,3,3,0,0,1-.2-1c0-.23,0-.37,0-.37l.29.24a3.69,3.69,0,0,1,.29.28c.1.11.25.21.38.33a5.2,5.2,0,0,0,.43.37,5.92,5.92,0,0,0,.48.35,5.8,5.8,0,0,0,.52.34,4.14,4.14,0,0,0,.55.29,9.13,9.13,0,0,0,1.18.48c.4.13.79.23,1.14.32Z"/><path class="cls-9" d="M99.35,74.51a1.44,1.44,0,1,1-1.44-1.44A1.44,1.44,0,0,1,99.35,74.51Z"/><path class="cls-7" d="M132.55,75.63l1.25-.3c.35-.09.74-.19,1.14-.32a8.46,8.46,0,0,0,1.17-.48,4.25,4.25,0,0,0,.56-.29,5.8,5.8,0,0,0,.52-.34c.17-.1.31-.24.48-.35a5.2,5.2,0,0,0,.43-.37c.12-.12.27-.22.37-.33s.21-.2.29-.28l.29-.24a2.6,2.6,0,0,1,0,.37,3,3,0,0,1-.21,1,2.37,2.37,0,0,1-.28.61,3.19,3.19,0,0,1-.44.62,3.26,3.26,0,0,1-.6.57,4.22,4.22,0,0,1-.73.45,4.36,4.36,0,0,1-3,.29A3,3,0,0,1,132.55,75.63Z"/><path class="cls-24" d="M105.19,352.32v25.15a.46.46,0,0,1-.46.45H103a.44.44,0,0,1-.45-.43l-1.42-25.17Z"/><path class="cls-5" d="M105.19,352.32l-6.5,24.26a1.81,1.81,0,0,1-1.75,1.34H73.44A1.43,1.43,0,0,1,72,376.48V373a5,5,0,0,1,5-5h2a2.57,2.57,0,0,0,2.38-1.58l5.88-14.12Z"/><path class="cls-10" d="M96.1,352.32l-4.61,10.44a5.77,5.77,0,0,1-5.28,3.44H84.8a1.85,1.85,0,0,1-1.71-2.55l4.67-11.33Z"/><path class="cls-25" d="M101.12,352.32,96,370a3.32,3.32,0,0,1-2.93,2.39l-11.61.88c-.33,0-.65.06-1,.1a37.63,37.63,0,0,1-6.07.12,7.7,7.7,0,0,1-2.39-.77,1.48,1.48,0,0,0,0,.21v3.51a1.43,1.43,0,0,0,1.44,1.44h23.5a1.81,1.81,0,0,0,1.75-1.34l6.5-24.26Z"/><ellipse class="cls-26" cx="79.44" cy="369.97" rx="5" ry="1.39"/><path class="cls-24" d="M127,352.32v25.15a.46.46,0,0,0,.46.45h1.74a.46.46,0,0,0,.46-.43l1.41-25.17Z"/><path class="cls-5" d="M127,352.32l6.5,24.26a1.81,1.81,0,0,0,1.75,1.34h23.51a1.44,1.44,0,0,0,1.44-1.44V373a5,5,0,0,0-4.95-5h-2a2.56,2.56,0,0,1-2.37-1.58L145,352.32Z"/><path class="cls-10" d="M136.11,352.32l4.62,10.44A5.76,5.76,0,0,0,146,366.2h1.41a1.85,1.85,0,0,0,1.71-2.55l-4.67-11.33Z"/><path class="cls-25" d="M131.09,352.32,136.22,370a3.34,3.34,0,0,0,2.93,2.39l11.61.88c.33,0,.65.06,1,.1a37.77,37.77,0,0,0,6.08.12,7.87,7.87,0,0,0,2.39-.77c0,.07,0,.14,0,.21v3.51a1.44,1.44,0,0,1-1.44,1.44H135.27a1.81,1.81,0,0,1-1.75-1.34L127,352.32Z"/><ellipse class="cls-26" cx="152.77" cy="369.97" rx="5" ry="1.39"/><path class="cls-10" d="M97.9,211.06l-8.05-6.16L74,192.82A4.18,4.18,0,0,1,72.67,188l-12.9-5-1.25,3.33,0,.1a13.45,13.45,0,0,0,4.45,15.36l18.72,14.31,7.85,6a6.92,6.92,0,1,0,8.4-11Z"/><polygon class="cls-19" points="72.67 188.01 90.73 140.76 77.77 135.34 59.77 182.96 72.67 188.01"/><path class="cls-14" d="M58.48,186.39a13.45,13.45,0,0,0,4.45,15.36l18.72,14.31,7.69,5.88a7.08,7.08,0,0,0,9-.27,6.93,6.93,0,0,0,2.09-3.67,5.91,5.91,0,0,1-3.19,1.83c-2.54.65-5.81-.94-7.87-2.57l0,0L64.23,197a5.73,5.73,0,0,1-2.14-4.19h0A5.74,5.74,0,0,1,65,187.48l2.31-1.29L59.77,183l-1.25,3.33Z"/><path class="cls-9" d="M73.1,188.38l-13.82-5.26a1.23,1.23,0,0,1-.66-1.41l1.13-5a.93.93,0,0,1,1.24-.76l14,5.63a1.21,1.21,0,0,1,.63,1.46l-1.29,4.67A.91.91,0,0,1,73.1,188.38Z"/><polygon class="cls-20" points="78.91 150.67 68.86 179.08 74.96 181.54 80.22 168.27 78.91 150.67"/><path class="cls-27" d="M97.52,216.24c-.87,1.36-3.44,1.27-5.74-.2s-3.47-3.75-2.6-5.11,3.44-1.28,5.74.19S98.39,214.88,97.52,216.24Z"/><polygon class="cls-19" points="174.55 167.73 153.05 135.34 141.63 143.44 164.55 177.66 174.55 167.73"/><path class="cls-10" d="M184.94,122.21h0a6.93,6.93,0,0,0-7.11,6.73l-.29,10.83h0l-.73,27.3c.25,3-1.58,2-2.26.66l-10,9.93s2.74,3,3.79,3.88c4.14,3.41,5.61,3.89,9.77,3.89a11.35,11.35,0,0,0,3.15-.4c13.29-3.75,10.41-55.71,10.41-55.71A6.93,6.93,0,0,0,184.94,122.21Z"/><path class="cls-14" d="M176.8,180.52c-6.35-1.54-4.39-10.67-4.39-10.67h0l-7.86,7.81s2.74,3,3.79,3.88c4.14,3.41,5.61,3.89,9.77,3.89a11.35,11.35,0,0,0,3.15-.4c13.29-3.75,10.41-55.71,10.41-55.71,0-.17,0-.34,0-.5-1.58,9.48-3.47,27.43-4.29,32.86C186.22,169.37,183.14,182.05,176.8,180.52Z"/><path class="cls-9" d="M159.1,173.58,170.88,161a1.15,1.15,0,0,1,1.6-.08l3.93,3.5a1.18,1.18,0,0,1,.06,1.69L164.28,178.7a1.16,1.16,0,0,1-1.64,0l-3.52-3.51A1.16,1.16,0,0,1,159.1,173.58Z"/><path class="cls-27" d="M181.93,137.42c-1.61.07-3-2.08-3.15-4.8s1.08-5,2.69-5.08,3,2.08,3.15,4.81S183.54,137.35,181.93,137.42Z"/><polygon class="cls-5" points="145.24 215.89 128.32 215.89 128.32 220.12 136.78 222.33 145.24 220.02 145.24 215.89"/><path class="cls-28" d="M133.9,130.53s.6-1,3.14,0a93.77,93.77,0,0,1,11.65,6c1.35,1.12,1.31,3.08-.17,3.24s-12.92-5.27-14.1-6.38A2.06,2.06,0,0,1,133.9,130.53Z"/><path class="cls-28" d="M97.43,130.53s-.6-1-3.14,0a94.49,94.49,0,0,0-11.65,6c-1.35,1.12-1.31,3.08.17,3.24s12.93-5.27,14.1-6.38A2.06,2.06,0,0,0,97.43,130.53Z"/><polygon class="cls-20" points="151.36 157.97 151.36 148.73 164.55 167.77 160.68 171.89 151.36 157.97"/><circle class="cls-2" cx="29.89" cy="274.09" r="29.89" transform="translate(-245.53 261.33) rotate(-81.12)"/><circle class="cls-2" cx="199.61" cy="68.27" r="7.67" transform="translate(-10.96 81.18) rotate(-22.39)"/><circle class="cls-2" cx="64.64" cy="352.32" r="7.67"/></g></g></svg>