<?xml version="1.0" encoding="UTF-8"?>
<svg width="218px" height="60px" viewBox="0 0 218 60" version="1.1" xmlns="http://www.w3.org/2000/svg" xmlns:xlink="http://www.w3.org/1999/xlink">
    <!-- Generator: Sketch 49.3 (51167) - http://www.bohemiancoding.com/sketch -->
    <title>logo-hvid</title>
    <desc>Created with Sketch.</desc>
    <defs></defs>
    <g id="Landin-page" stroke="none" stroke-width="1" fill="none" fill-rule="evenodd">
        <g id="V1" transform="translate(-30.000000, -30.000000)" fill="#FFFFFF" fill-rule="nonzero">
            <g id="Navigation" transform="translate(30.000000, 30.000000)">
                <g id="logo-hvid">
                    <path d="M15.9666093,31.820327 L6.47910597,31.820327 L6.47910597,44.8092976 L0,44.8092976 L0,13.0245226 L20.4739749,13.0245226 L20.4739749,18.3292618 L6.47910597,18.3292618 L6.47910597,26.537418 L15.9666093,26.537418 L15.9666093,31.820327 Z M33.62656,27.1050033 C32.777073,26.9885749 32.0283838,26.9303617 31.3804699,26.9303617 C29.019184,26.9303617 27.471413,27.738071 26.7371106,29.3535141 L26.7371106,44.8092976 L20.4955719,44.8092976 L20.4955719,21.1890184 L26.3915583,21.1890184 L26.5643345,24.0051145 C27.8169679,21.8366369 29.5519111,20.7524143 31.7692163,20.7524143 C32.4603244,20.7524143 33.1082285,20.8470109 33.7129481,21.036207 L33.62656,27.1050033 Z M34.8791871,32.780856 C34.8791871,30.4377358 35.3255211,28.349334 36.2182024,26.5155878 C37.1108836,24.6818416 38.3958935,23.2628926 40.0732704,22.2586983 C41.7506474,21.2545039 43.6979592,20.7524143 45.9152643,20.7524143 C49.068445,20.7524143 51.6420642,21.727487 53.6361989,23.6776615 C55.6303337,25.627836 56.7425691,28.2765408 56.9729385,31.6238552 L57.0161325,33.2392902 C57.0161325,36.8631219 56.0154808,39.7701482 54.0141468,41.9604561 C52.0128128,44.1507641 49.3276103,45.2459016 45.9584583,45.2459016 C42.5893064,45.2459016 39.9005043,44.1544024 37.8919714,41.9713712 C35.8834385,39.7883401 34.8791871,36.8194622 34.8791871,33.0646486 L34.8791871,32.780856 Z M41.1207259,33.2392902 C41.1207259,35.4805356 41.5382641,37.1941893 42.373353,38.3803029 C43.208442,39.5664166 44.4034652,40.1594644 45.9584583,40.1594644 C47.4702573,40.1594644 48.6508826,39.5736932 49.5003696,38.4021331 C50.3498566,37.2305731 50.7745938,35.3568327 50.7745938,32.780856 C50.7745938,30.5832712 50.3498566,28.8805325 49.5003696,27.6725885 C48.6508826,26.4646446 47.4558594,25.8606817 45.9152643,25.8606817 C44.3890673,25.8606817 43.208442,26.4610063 42.373353,27.6616734 C41.5382641,28.8623406 41.1207259,30.7215276 41.1207259,33.2392902 Z M66.6052094,21.1890184 L66.7995826,23.9177937 C68.4697606,21.8075303 70.7086293,20.7524143 73.5162557,20.7524143 C75.9927262,20.7524143 77.8356535,21.4873571 79.0450928,22.9572648 C80.2545322,24.4271724 80.8736403,26.6247242 80.9024365,29.549986 L80.9024365,44.8092976 L74.6608978,44.8092976 L74.6608978,29.7027974 C74.6608978,28.3638716 74.3729401,27.3924373 73.797017,26.7884653 C73.2210939,26.1844933 72.2636355,25.8825119 70.9246134,25.8825119 C69.1680472,25.8825119 67.8506421,26.6392847 66.9723587,28.152853 L66.9723587,44.8092976 L60.73082,44.8092976 L60.73082,21.1890184 L66.6052094,21.1890184 Z M93.1047528,15.3821845 L93.1047528,21.1890184 L97.1002015,21.1890184 L97.1002015,25.8170213 L93.1047528,25.8170213 L93.1047528,37.6053307 C93.1047528,38.4785432 93.2703283,39.1043361 93.6014843,39.4827282 C93.9326402,39.8611202 94.5661468,40.0503134 95.502022,40.0503134 C96.1931301,40.0503134 96.8050397,39.9993768 97.3377687,39.897502 L97.3377687,44.6783164 C96.1139316,45.0567085 94.8541176,45.2459016 93.5582902,45.2459016 C89.1812723,45.2459016 86.9496028,43.0119666 86.863214,38.5440294 L86.863214,25.8170213 L83.4508849,25.8170213 L83.4508849,21.1890184 L86.863214,21.1890184 L86.863214,15.3821845 L93.1047528,15.3821845 Z M123.103013,44.8092976 L117.906905,44.8092976 L116.839878,44.8092976 L116.839878,32.2351009 L123.103013,32.2351009 L123.103013,44.8092976 Z M116.105579,24.3107373 C116.105579,23.3647572 116.418732,22.5861544 117.045049,21.9749057 C117.671366,21.3636569 118.52444,21.0580372 119.604296,21.0580372 C120.669754,21.0580372 121.519229,21.3636569 122.152745,21.9749057 C122.78626,22.5861544 123.103013,23.3647572 123.103013,24.3107373 C123.103013,25.2712711 122.782661,26.0571505 122.141946,26.6683992 C121.501231,27.279648 120.655356,27.5852677 119.604296,27.5852677 C118.553236,27.5852677 117.707361,27.279648 117.066646,26.6683992 C116.425932,26.0571505 116.105579,25.2712711 116.105579,24.3107373 Z M134.830195,44.8092976 L128.567059,44.8092976 L128.567059,21.7566036 L134.830195,21.7566036 L134.830195,44.8092976 Z M146.557377,44.8092976 L140.294241,44.8092976 L140.294241,11.2781064 L146.557377,11.2781064 L146.557377,44.8092976 Z M102.888203,44.8092976 L102.888203,25.8170213 L99.4110826,25.8170213 L99.4110826,21.1890184 L102.888203,21.1890184 L102.888203,19.1806397 C102.888203,16.5318953 103.640492,14.4762384 105.145091,13.0136075 C106.649691,11.5509766 108.75538,10.8196721 111.46222,10.8196721 C112.326105,10.8196721 113.384348,10.9652054 114.636982,11.2562762 L114.572191,16.1462416 C114.053859,16.0152597 113.420353,15.9497697 112.671653,15.9497697 C110.324765,15.9497697 109.151339,17.063099 109.151339,19.2897907 L109.151339,21.1890184 L113.794698,21.1890184 L113.794698,25.8170213 L109.151339,25.8170213 L109.151339,44.8092976 L102.888203,44.8092976 Z" id="FrontFill-Copy-4"></path>
                    <path d="M215.094847,9.25336572 L188.13787,0.0921038381 C187.499834,-0.0307012794 186.984498,-0.0307012794 186.481433,0.0921038381 L159.512184,9.26564619 C157.315871,9.94107437 157.377221,11.6726265 157.377221,11.7217486 L157.377221,46.9790982 C157.377221,47.9983807 158.015256,48.8948581 159.033658,49.275554 L186.481433,59.8736357 C186.972228,60.0824046 188.01517,59.996441 188.272838,59.8736357 L215.720612,49.2878344 C216.739015,48.9071386 217.377049,48.0106612 217.377049,46.9913787 L217.377049,11.7217486 C217.377049,10.9603568 216.910793,9.48669543 215.094847,9.25336572 Z M187.377135,5.07799166 L207.548857,11.8445537 L187.377135,19.5198736 L167.205414,11.8445537 L187.377135,5.07799166 Z M162.358802,45.198424 L162.358802,15.4304632 L184.824996,23.98998 L184.824996,53.8807459 L162.358802,45.198424 Z" id="Combined-Shape"></path>
                </g>
            </g>
        </g>
    </g>
</svg>