<?xml version="1.0" encoding="UTF-8"?>
<svg width="366px" height="129px" viewBox="0 0 366 129" version="1.1" xmlns="http://www.w3.org/2000/svg" xmlns:xlink="http://www.w3.org/1999/xlink">
    <!-- Generator: Sketch 49.3 (51167) - http://www.bohemiancoding.com/sketch -->
    <title>Artboard 2 Copy 5</title>
    <desc>Created with Sketch.</desc>
    <defs></defs>
    <g id="Artboard-2-Copy-5" stroke="none" stroke-width="1" fill="none" fill-rule="evenodd">
        <path d="M49.1655273,67.40625 L35.4375,67.40625 L35.4375,86 L26.0625,86 L26.0625,40.5 L55.6875,40.5 L55.6875,48.09375 L35.4375,48.09375 L35.4375,59.84375 L49.1655273,59.84375 L49.1655273,67.40625 Z M74.71875,60.65625 C73.4895772,60.4895825 72.4062547,60.40625 71.46875,60.40625 C68.0520663,60.40625 65.8125053,61.5624884 64.75,63.875 L64.75,86 L55.71875,86 L55.71875,52.1875 L64.25,52.1875 L64.5,56.21875 C66.3125091,53.1145678 68.8229006,51.5625 72.03125,51.5625 C73.031255,51.5625 73.9687456,51.6979153 74.84375,51.96875 L74.71875,60.65625 Z M76.53125,68.78125 C76.53125,65.4270666 77.1770769,62.4375131 78.46875,59.8125 C79.7604231,57.1874869 81.6197795,55.1562572 84.046875,53.71875 C86.4739705,52.2812428 89.2916506,51.5625 92.5,51.5625 C97.0625228,51.5625 100.786444,52.9583194 103.671875,55.75 C106.557306,58.5416806 108.166665,62.3333094 108.5,67.125 L108.5625,69.4375 C108.5625,74.6250259 107.114598,78.7864427 104.21875,81.921875 C101.322902,85.0573073 97.4375244,86.625 92.5625,86.625 C87.6874756,86.625 83.7968895,85.0625156 80.890625,81.9375 C77.9843605,78.8124844 76.53125,74.5625269 76.53125,69.1875 L76.53125,68.78125 Z M85.5625,69.4375 C85.5625,72.6458494 86.1666606,75.0989498 87.375,76.796875 C88.5833394,78.4948002 90.3124888,79.34375 92.5625,79.34375 C94.7500109,79.34375 96.4583272,78.5052167 97.6875,76.828125 C98.9166728,75.1510333 99.53125,72.4687684 99.53125,68.78125 C99.53125,65.6354009 98.9166728,63.1979253 97.6875,61.46875 C96.4583272,59.7395747 94.7291778,58.875 92.5,58.875 C90.2916556,58.875 88.5833394,59.7343664 87.375,61.453125 C86.1666606,63.1718836 85.5625,65.8333153 85.5625,69.4375 Z M122.4375,52.1875 L122.71875,56.09375 C125.135429,53.0729016 128.37498,51.5625 132.4375,51.5625 C136.020851,51.5625 138.687491,52.6145728 140.4375,54.71875 C142.187509,56.8229272 143.083333,59.9687291 143.125,64.15625 L143.125,86 L134.09375,86 L134.09375,64.375 C134.09375,62.4583238 133.677087,61.0677127 132.84375,60.203125 C132.010413,59.3385373 130.62501,58.90625 128.6875,58.90625 C126.145821,58.90625 124.23959,59.9895725 122.96875,62.15625 L122.96875,86 L113.9375,86 L113.9375,52.1875 L122.4375,52.1875 Z M160.78125,43.875 L160.78125,52.1875 L166.5625,52.1875 L166.5625,58.8125 L160.78125,58.8125 L160.78125,75.6875 C160.78125,76.9375063 161.020831,77.8333306 161.5,78.375 C161.979169,78.9166694 162.895827,79.1875 164.25,79.1875 C165.250005,79.1875 166.135413,79.1145841 166.90625,78.96875 L166.90625,85.8125 C165.135408,86.3541694 163.312509,86.625 161.4375,86.625 C155.104135,86.625 151.875001,83.4271153 151.75,77.03125 L151.75,58.8125 L146.8125,58.8125 L146.8125,52.1875 L151.75,52.1875 L151.75,43.875 L160.78125,43.875 Z M204.1875,86 L196.668945,86 L195.125,86 L195.125,68 L204.1875,68 L204.1875,86 Z M194.0625,56.65625 C194.0625,55.3020766 194.51562,54.1875044 195.421875,53.3125 C196.32813,52.4374956 197.562492,52 199.125,52 C200.666674,52 201.895829,52.4374956 202.8125,53.3125 C203.729171,54.1875044 204.1875,55.3020766 204.1875,56.65625 C204.1875,58.0312569 203.723963,59.1562456 202.796875,60.03125 C201.869787,60.9062544 200.645841,61.34375 199.125,61.34375 C197.604159,61.34375 196.380213,60.9062544 195.453125,60.03125 C194.526037,59.1562456 194.0625,58.0312569 194.0625,56.65625 Z M221.15625,86 L212.09375,86 L212.09375,53 L221.15625,53 L221.15625,86 Z M238.125,86 L229.0625,86 L229.0625,38 L238.125,38 L238.125,86 Z M174.9375,86 L174.9375,58.8125 L169.90625,58.8125 L169.90625,52.1875 L174.9375,52.1875 L174.9375,49.3125 C174.9375,45.5208144 176.026031,42.5781355 178.203125,40.484375 C180.380219,38.3906145 183.427064,37.34375 187.34375,37.34375 C188.593756,37.34375 190.124991,37.5520813 191.9375,37.96875 L191.84375,44.96875 C191.093746,44.7812491 190.177089,44.6875 189.09375,44.6875 C185.6979,44.6875 184,46.2812341 184,49.46875 L184,52.1875 L190.71875,52.1875 L190.71875,58.8125 L184,58.8125 L184,86 L174.9375,86 Z" id="FrontFill-Copy-4" fill="#00A5CF"></path>
        <path d="M337.35781,34.3524497 L298.425718,21.1329043 C297.504248,20.9556986 296.759984,20.9556986 296.033441,21.1329043 L257.083627,34.3701702 C253.911645,35.3448016 254.000248,37.843402 254.000248,37.9142843 L254.000248,88.7900413 C254.000248,90.2608487 254.921718,91.5544503 256.392525,92.103788 L296.033441,107.39664 C296.742263,107.69789 298.248512,107.573846 298.620644,107.39664 L338.261559,92.1215085 C339.732367,91.5721709 340.653836,90.2785692 340.653836,88.8077619 L340.653836,37.9142843 C340.653836,36.8156089 339.980455,34.6891405 337.35781,34.3524497 Z M297.327042,28.3274558 L326.45966,38.09149 L297.327042,49.1668463 L268.194425,38.09149 L297.327042,28.3274558 Z M261.1948,86.2205587 L261.1948,43.2658965 L293.641164,55.6171339 L293.641164,98.7490018 L261.1948,86.2205587 Z" id="Combined-Shape" fill="#00A5CF" fill-rule="nonzero"></path>
    </g>
</svg>