<svg xmlns="http://www.w3.org/2000/svg" viewBox="0 0 285.25 247.2"><defs><style>.cls-1{fill:#f78381;}.cls-2{opacity:0.2;}.cls-3{fill:#1c1c1c;}.cls-18,.cls-4{fill:#e2413e;}.cls-4{opacity:0.3;}.cls-5{fill:#353535;}.cls-6{fill:#8b372f;}.cls-7{fill:#fff;}.cls-8{fill:#d1d1d1;}.cls-9{fill:#ecc19c;}.cls-10{fill:#cf9e76;}.cls-11{fill:#722d26;}.cls-12{fill:#a03f35;}.cls-13{fill:#b9493e;}.cls-14{fill:#424242;}.cls-15{fill:#dfb28b;}.cls-16{fill:#292929;}.cls-17{fill:#d35345;}.cls-19{fill:#f56462;}.cls-20{fill:#888;}.cls-21{fill:#5d5d5d;}.cls-22{fill:#f0d0b4;}.cls-23{fill:#c2c2c2;}.cls-24{fill:#a64429;}.cls-25{fill:#f7e041;}</style></defs><title>Asset 1</title><g id="Layer_2" data-name="Layer 2"><g id="Objects"><path class="cls-1" d="M283.1,100.72A117.46,117.46,0,0,0,149.68,7.15,117.54,117.54,0,0,1,279.09,127.68a129.69,129.69,0,0,1-10.12,33,117,117,0,0,0,.8-47.8c-12.14-63.8-74.16-105.79-137.9-93.36l-1.34.27a99.49,99.49,0,0,0-28.61,10.7h26.66a5.77,5.77,0,0,1,5.78,5.77h0a5.78,5.78,0,0,1-5.78,5.78H85.49A97.87,97.87,0,0,0,58.86,79.22,117.53,117.53,0,0,0,134.4,235.86,130.6,130.6,0,0,1,20.61,122.21,130.64,130.64,0,0,0,206.83,234C260.49,214.94,294.32,158.21,283.1,100.72ZM255.29,195l1-1.7a131.26,131.26,0,0,0,9.88-15.59A118.17,118.17,0,0,1,255.29,195Z"/><g class="cls-2"><path class="cls-3" d="M248.58,41.59l-.79.2-.66.18-.79.28-.24.09a116.64,116.64,0,0,1,18.42,24.88l0,0c.24-.3.46-.61.67-.92l.19-.27q.38-.57.69-1.17c.07-.13.13-.26.19-.39.15-.29.28-.58.4-.87s.14-.32.2-.48c.14-.36.27-.72.38-1.08s.12-.43.17-.64.05-.19.07-.29A116.83,116.83,0,0,0,252,41.24h-.42l-.79,0-.69.07-.8.11Z"/><path class="cls-3" d="M265.24,68.55l.69,1.29a14.4,14.4,0,0,0,1.81-3.53h0A11.15,11.15,0,0,1,265.24,68.55Z"/><path class="cls-3" d="M255.29,195l1-1.7c1-1.33,1.92-2.67,2.84-4l1.15-5.9a22.23,22.23,0,0,0-9.89-23l-13.7-8.71-.85-16.28.39-.48c.21-.26.41-.52.61-.79l.45-.6.55-.77.45-.66.49-.74.45-.73.43-.71.48-.86c.11-.2.23-.39.33-.6.25-.47.5-.95.72-1.44.09-.18.17-.36.25-.53.14-.33.29-.65.43-1l.24-.62c.12-.3.24-.6.35-.9l.23-.65c.09-.26.18-.53.26-.8h0l.3-.16a25.27,25.27,0,0,1,2.29,2.06,17.34,17.34,0,0,1,2.4,4.61,10.19,10.19,0,0,0-.86-4.83,7.1,7.1,0,0,0-2.36-2.67h0a10.5,10.5,0,0,1,3.15,1.06c3,1.57,5.54,6.67,5.54,6.67s0-4.35-2.71-7.18a16.15,16.15,0,0,0-3.14-2.42,42.84,42.84,0,0,0,5.89-5.09c.32-.33.64-.68,1-1a35.93,35.93,0,0,0,5.29-7.69,29.26,29.26,0,0,0,1.38-3.11,31.29,31.29,0,0,0,1.8-7.07c.09-.64.15-1.29.2-2s.08-1.33.09-2c0-.37,0-.75,0-1.12A117.17,117.17,0,0,0,227.46,43c-10.43-2-24.21-.93-38.12,8-9.41,6-11.29,12.25-11,16.81h0c0,.23,0,.45.07.67a.38.38,0,0,0,0,.1c0,.2.06.4.09.6,0,0,0,.08,0,.12,0,.19.07.38.11.56l0,.13c.05.18.09.35.14.52l0,.13q.07.26.15.48a.65.65,0,0,0,0,.13l.15.44,0,.12c.05.14.11.28.16.41a1.17,1.17,0,0,0,.05.11,3.17,3.17,0,0,0,.16.37l.05.1.15.34,0,.09.15.29.05.08c0,.09.09.17.13.25l0,.06.13.21,0,0,.1.17,0,0,.08.11,0,.06,0,0,0,0s-10.79,7.58-4.13,43.49c3.2,17.25,10,33.52,27.52,33.52.74,0,1.47,0,2.21-.08l.26,4L204,157.4h0l-12.39,8.95-.37,1.3-19.43,39.73-.26-.2a1.31,1.31,0,0,0-1.8.22L167,210.93l-11.07-35.48a8.66,8.66,0,0,0-.57-1.36l3-5.63a2.4,2.4,0,0,0-1-3.26h0a2.41,2.41,0,0,0-3.26,1l-2.37,4.42a8.09,8.09,0,0,0-2.82-.8c.23-1.36.87-5.6.37-8.4-.6-3.38-3.9-5.82-5.25-3.66s1.13,3.13,1.35,6.2a24.42,24.42,0,0,1-1.05,6.79,8.11,8.11,0,0,0-3.89,9.54l15.19,48.67a12.28,12.28,0,0,0,4.55,6.32,7.94,7.94,0,0,0,.93,1.72H149.29l-22.84-64.44a6.14,6.14,0,0,0-5.79-4.09H59.38a117.64,117.64,0,0,0,75,67.41,130.78,130.78,0,0,1-99-67.41H31.49A130.7,130.7,0,0,0,206.83,234a117.29,117.29,0,0,0,50.4-35.06l1.8-9.26C257.83,191.46,256.59,193.23,255.29,195Zm-87.11,19.89h0Zm13,10.21,0-.09.14.1Z"/><path class="cls-3" d="M151.77,152.16a1.68,1.68,0,0,0,1.63-1.74l-.31-11a1.69,1.69,0,1,0-3.37.1l.31,11A1.69,1.69,0,0,0,151.77,152.16Z"/><path class="cls-3" d="M161,156.76a1.68,1.68,0,0,0,2.35.39l9-6.41a1.69,1.69,0,1,0-2-2.74l-8.95,6.41A1.68,1.68,0,0,0,161,156.76Z"/><path class="cls-3" d="M157.66,152.13a1.68,1.68,0,0,0,2.26-.74l5-9.84a1.69,1.69,0,0,0-3-1.52l-4.94,9.84A1.68,1.68,0,0,0,157.66,152.13Z"/></g><path class="cls-4" d="M284.71,111.71q-3.37-3.1-7-5.88a118,118,0,0,1,1.38,21.85,129.69,129.69,0,0,1-10.12,33,117.49,117.49,0,0,0-3.05-62.66,100.43,100.43,0,0,0-141,46.93,28.23,28.23,0,1,0-8.13,49.86,99.71,99.71,0,0,0,12,39.18c1.86.65,3.72,1.28,5.62,1.84-1.67-.2-3.33-.44-5-.71a101.28,101.28,0,0,0,6.85,10.47A131.24,131.24,0,0,0,206.83,234C257.07,216.16,289.92,165.3,284.71,111.71ZM255.29,195l1-1.7a131.26,131.26,0,0,0,9.88-15.59A118.17,118.17,0,0,1,255.29,195Z"/><polygon class="cls-5" points="161.25 211.69 186 161.08 171.45 153.97 148.05 201.81 161.25 211.69"/><path class="cls-6" d="M224.1,108.17a7,7,0,0,1,2.85,3,10.33,10.33,0,0,1,.86,4.83s-1.18-3.33-2.41-4.61a26.87,26.87,0,0,0-2.65-2.35Z"/><path class="cls-6" d="M225,105.24a22.24,22.24,0,0,1,5.6,3.76c2.72,2.84,2.72,7.19,2.72,7.19s-2.54-5.1-5.55-6.68a9.44,9.44,0,0,0-5.39-1.12Z"/><polygon class="cls-7" points="213.13 247.2 216.56 138.57 186.78 147.45 172 169.58 162.64 247.2 213.13 247.2"/><path class="cls-8" d="M168.65,247.2h36.56l2.32-41.47-8.45-9.63a6.3,6.3,0,0,0-5.63,1.31c-2.81,2.25-6.94,2.44-9-.38s-5.26-5.06-8.07-4.69-2.25,29.27-2.25,29.27Z"/><path class="cls-9" d="M186.78,147.45l-1.18-17.76,28.71-34.28,2.25,43.16-1.39,8.25a17.74,17.74,0,0,1-18.65,14.76l-5.26-.35a5.94,5.94,0,0,1-5.5-6.78Z"/><path class="cls-10" d="M215.65,122.37c-2.31,4.83-9.31,14.42-16.47,19.22-5.14,3.44-9.69,3.42-12.61,2.8l-1-14.7,11.64-13.9,17.66-9.1Z"/><path class="cls-6" d="M243.14,32.86a16,16,0,0,1,.06,22.69,15.75,15.75,0,0,1-1.94,1.64,17.15,17.15,0,0,0,2.49-.91,11.13,11.13,0,0,0,3.87-3s-1.93,6.2-7.81,8.29c-4,1.44-2.86-.94-1.73-2.57a16,16,0,1,1,5.06-26.14Z"/><path class="cls-7" d="M151.44,194.15l15.4,11.52a1.29,1.29,0,0,1,.29,1.77l-3.4,4.79a1.31,1.31,0,0,1-1.86.27l-15.46-12a1.28,1.28,0,0,1-.23-1.81l3.46-4.35A1.31,1.31,0,0,1,151.44,194.15Z"/><path class="cls-9" d="M148.05,201.81l-12.29-39.39a8.09,8.09,0,1,0-15.45,4.82l15.18,48.67a12.27,12.27,0,0,0,10.84,8.61c.32,0,.63,0,.95,0a12.26,12.26,0,0,0,11.05-6.91l2.91-6Z"/><path class="cls-11" d="M243.47,46.67a27,27,0,0,0,3.58-7.47,16,16,0,0,1-3.85,16.35,15.75,15.75,0,0,1-1.94,1.64,17.15,17.15,0,0,0,2.49-.91,11.13,11.13,0,0,0,3.87-3s-1.93,6.2-7.81,8.29c-4,1.44-2.86-.94-1.73-2.57a16,16,0,0,1-4.43,1.16,26.72,26.72,0,0,1,.34-6.83S238.68,53.9,243.47,46.67Z"/><path class="cls-12" d="M220.46,32.92a16,16,0,0,1,21.48-1.14c0,1.35-.21,3.66-1.26,4.82-3.87,4.32-13,4.13-13,4.13a12.85,12.85,0,0,0,5,1.5,42.69,42.69,0,0,0,4.38-.25s-4.13,3.13-11.26,2.38c-2.73-.29-6.7,0-10-.36A16,16,0,0,1,220.46,32.92Z"/><path class="cls-13" d="M223.75,42.07S241.8,50.63,243,76.53c1.06,22.7-20.19,32.91-20.19,32.91l-3.57-56.17Z"/><path class="cls-9" d="M184,138.57h0c20.33,0,39.24-18.92,40.11-36l-.33-60.54L223,40.76,175.59,40l-15,21.61s-10.78,7.58-4.12,43.49C159.65,122.3,166.43,138.57,184,138.57Z"/><path class="cls-13" d="M229.82,30.63a8.37,8.37,0,0,1,4.72.58c2,1.07.79,3.76-1.68,5.38s-6.9.94-7.7-1.54S228.35,30.75,229.82,30.63Z"/><circle class="cls-6" cx="192.35" cy="92.34" r="3.65"/><circle class="cls-6" cx="164.1" cy="92.34" r="3.65"/><path class="cls-7" d="M163.8,91.25a1.4,1.4,0,1,0,1.4-1.4A1.4,1.4,0,0,0,163.8,91.25Z"/><path class="cls-6" d="M186.05,74.58a4.61,4.61,0,0,1,.32-.73,7.75,7.75,0,0,1,1.24-1.73,7,7,0,0,1,1.09-1,7.06,7.06,0,0,1,1.43-.83A4.55,4.55,0,0,1,191,70a3.85,3.85,0,0,1,.89-.21,4.73,4.73,0,0,1,.93-.08h.49l.42,0a16.45,16.45,0,0,1,1.76.24,10.82,10.82,0,0,1,1.67.51,7.4,7.4,0,0,1,1.46.74,5.85,5.85,0,0,1,1.15.89A5.94,5.94,0,0,1,201,73.83a3.2,3.2,0,0,1,.28.75,7.62,7.62,0,0,0-2.11-1.77,9.66,9.66,0,0,0-1.16-.59,12,12,0,0,0-1.36-.47c-.48-.15-1-.23-1.5-.34a12.83,12.83,0,0,0-1.61-.17l-.42,0h-.36a3.88,3.88,0,0,0-.76,0,6.82,6.82,0,0,0-1.44.3,8.92,8.92,0,0,0-2.43,1.22A13.2,13.2,0,0,0,186.6,74C186.24,74.37,186.05,74.58,186.05,74.58Z"/><path class="cls-6" d="M170,74.58a11.11,11.11,0,0,0-1.88-1.8,11.78,11.78,0,0,0-1-.66,7.57,7.57,0,0,0-1.19-.54,6,6,0,0,0-1.34-.32,7.23,7.23,0,0,0-1.39-.06c-.52.06-1.07.06-1.52.15s-.94.17-1.38.27a6.92,6.92,0,0,0-2.24,1,5.51,5.51,0,0,0-.75.66,5.31,5.31,0,0,0-.48.64,3.46,3.46,0,0,0-.33.64,2.26,2.26,0,0,1,0-.75,4,4,0,0,1,.91-1.84,5,5,0,0,1,1-.94c.21-.14.43-.26.66-.39s.48-.21.73-.32a7.9,7.9,0,0,1,1.59-.44,11.8,11.8,0,0,1,1.62-.18,8.44,8.44,0,0,1,1.75.13,7.44,7.44,0,0,1,1.59.54,7.17,7.17,0,0,1,1.31.84,7.35,7.35,0,0,1,1,1,7.11,7.11,0,0,1,1,1.69A4.58,4.58,0,0,1,170,74.58Z"/><path class="cls-6" d="M192.35,92.34l1.21-.29c.35-.08.73-.19,1.12-.32a8,8,0,0,0,1.14-.46,3.6,3.6,0,0,0,.55-.29,5.29,5.29,0,0,0,.5-.32c.17-.1.31-.24.47-.35a5,5,0,0,0,.42-.36c.12-.12.27-.21.37-.32s.2-.19.28-.27l.28-.24a2.58,2.58,0,0,1,0,.37,2.83,2.83,0,0,1-.2.94,2.4,2.4,0,0,1-.27.59,3.55,3.55,0,0,1-.43.61,3.08,3.08,0,0,1-.59.55,3.49,3.49,0,0,1-.71.44,4.28,4.28,0,0,1-2.93.29A2.94,2.94,0,0,1,192.35,92.34Z"/><path class="cls-7" d="M192,91.25a1.41,1.41,0,1,0,1.4-1.4A1.4,1.4,0,0,0,192,91.25Z"/><path class="cls-6" d="M164.1,92.34a2.94,2.94,0,0,1-1.19.57,4.28,4.28,0,0,1-2.93-.29,3.24,3.24,0,0,1-.71-.44,2.81,2.81,0,0,1-.59-.55,3.08,3.08,0,0,1-.43-.61,2.08,2.08,0,0,1-.27-.59,2.89,2.89,0,0,1-.21-.94,2.58,2.58,0,0,1,0-.37l.28.24c.08.08.19.16.29.27s.24.2.36.32a5,5,0,0,0,.42.36c.16.11.3.25.47.35a5.43,5.43,0,0,0,.51.32,4,4,0,0,0,.54.29,7.66,7.66,0,0,0,1.15.46c.38.13.77.24,1.11.32Z"/><path class="cls-14" d="M171.5,153.32l-9,32a21.16,21.16,0,0,0-.56,8.85l1.6,10.64,3.93-2.18Z"/><path class="cls-15" d="M214.67,97a68.9,68.9,0,0,0-8-29s7.16-3.64,17.24,1l.18,33.61c-.77,15-15.62,31.56-33.08,35.21C204.59,129.26,215.16,112.89,214.67,97Z"/><path class="cls-13" d="M223.75,42.07s-22.27,13-23,18.7,9.76,7.51,15.51,15.26a51.82,51.82,0,0,1,7.88,15.83l2.26-30.3Z"/><path class="cls-13" d="M209.39,48.42a53.59,53.59,0,0,0-10.66,9.85s-11.33-3.45-21.36-2.54a36.6,36.6,0,0,0-16.79,5.83s-9.19-12.23,8.63-23.62c14.2-9.07,28.27-10,38.78-7.85a23,23,0,0,1,15,10.67S218.3,42.36,209.39,48.42Z"/><path class="cls-12" d="M220.14,67.37h0a11.88,11.88,0,0,0,1.46-.48h0c.47-.19.93-.4,1.37-.63l1-.6.36-.23.55-.37c.14-.09.29-.19.42-.29l.38-.28.44-.34c3.6-2.9,4.25-5.65,4.25-5.65a18.32,18.32,0,0,1-1,6.88,15.57,15.57,0,0,1-2.38,4.5s6,2.76,9.51,0c2.33-1.83,2.94-6,3.05-9.34a47.78,47.78,0,0,1,3.4,16c1.06,22.7-20.19,32.91-20.19,32.91l-1.6-25.08a50.27,50.27,0,0,0-5-8.33c-3-4-7.27-6.45-10.59-8.64C205.65,67.39,213.78,69.14,220.14,67.37Z"/><path class="cls-14" d="M200.64,211.57l-3.71,35.63h35l-3.58-16.57,11.77-60.33a22.25,22.25,0,0,0-9.89-23l-13.7-8.71-11.29,28.51-.85,8.17-4.8,17a21,21,0,0,0-.55,8.85Z"/><path class="cls-5" d="M230.28,247.2,224,228V210.92l-8.76-3.19s-3.88.12-4.5-1.75-1.13-10-1.13-10l-5.88,17.51-6.18,27.4-.66,6.32Z"/><path class="cls-3" d="M198.81,232.83c-.05-.08-.16-.29-.32-.59l2.15-20.67-1.57-10.44a21,21,0,0,1,.55-8.85l4.7-16.65,6.25-4.11,2.07,13.07-1.94,6.79c-1.51,5.45-3.32,12.5-3.17,14.35.25,3.12.75,13.28-1.26,17.9s-8.68,17.25-8.68,17.25Z"/><path class="cls-14" d="M172.3,247.2l5.66-39-1.34-8.9a21,21,0,0,1,.55-8.85l6.93-24.58,2.68-18.45-.33-4.93-14.95,10.8-11.43,73.8-3.3,20.08Z"/><path class="cls-5" d="M170.63,194.09a12.44,12.44,0,0,1-4.38.51,6.32,6.32,0,0,1-3.75-1.13s2.25,9.26,1.87,11.38S162,216.48,162,216.48l-2.13,15.26,14.63,1.13.66-14.63Z"/><path class="cls-3" d="M171.5,181.34l7.7-12.53,2.16,6.82h0l-4.19,14.85a21,21,0,0,0-.55,8.85l1.34,8.9-2.24,15.4s-3.59-14.28-5.34-22.41S171.5,181.34,171.5,181.34Z"/><polygon class="cls-16" points="220.97 141.56 213.15 169.83 204.32 175.63 205.27 167.08 216.56 138.57 220.97 141.56"/><polygon class="cls-16" points="183.89 144.37 178.38 166.2 181.36 175.63 184.1 165.9 186.78 147.45 186.45 142.52 183.89 144.37"/><path class="cls-9" d="M222.65,103.75l-.55-16.67a8.63,8.63,0,0,1,2.7-.43,8.76,8.76,0,1,1,0,17.51,8.92,8.92,0,0,1-2.26-.3Z"/><path class="cls-12" d="M217.29,77.51h0a33.77,33.77,0,0,1,4.43,14.73L222,96l3.36-20.24Z"/><path class="cls-17" d="M211.6,57.88s1.05-3.66,5.93-6.22,8.07-2.69,10.11-1.15c2.3,1.74-2.61,9.48-8.71,11C213.56,62.88,210.66,61.32,211.6,57.88Z"/><path class="cls-17" d="M178.36,36.18s2.91-3.46,9.11-4.06,9.46.63,10.72,3.17c1.42,2.86-7.43,9-14.33,8C177.79,42.39,175.67,39.45,178.36,36.18Z"/><path class="cls-12" d="M160,49.51c2.75-5.73,10.76-10.66,10.76-10.66s-5,6.26,0,7.76,26,2,32.64-4.38,2-9.88,2-9.88a34.06,34.06,0,0,1,9.63,3,18.38,18.38,0,0,1,6.6,6,81.14,81.14,0,0,0-12.25,7.11,53.59,53.59,0,0,0-10.66,9.85s-11.33-3.45-21.36-2.54a36.6,36.6,0,0,0-16.79,5.83,14,14,0,0,1-2.33-6.81A23.07,23.07,0,0,1,160,49.51Z"/><polygon class="cls-3" points="207.16 240.3 223.44 237.51 224.14 241.58 216.36 245.1 207.85 244.28 207.16 240.3"/><path class="cls-18" d="M181.52,130.22h0A10.52,10.52,0,0,1,171,119.7v-9a1.26,1.26,0,0,1,1.25-1.26h18.54A1.26,1.26,0,0,1,192,110.7v9A10.52,10.52,0,0,1,181.52,130.22Z"/><path class="cls-7" d="M173,110h17a1.5,1.5,0,0,1,1.5,1.5v.76a2.3,2.3,0,0,1-2.3,2.3H173.8a2.3,2.3,0,0,1-2.3-2.3v-.76A1.5,1.5,0,0,1,173,110Z"/><path class="cls-19" d="M181.5,118.91h0a10,10,0,0,0-9.14,6,10.5,10.5,0,0,0,9.16,5.36h0a10.5,10.5,0,0,0,9.14-5.32A10,10,0,0,0,181.5,118.91Z"/><path class="cls-15" d="M161.24,211.68l-5.44-4.07a29.21,29.21,0,0,1-7.09,2.2c-5.74,1.06-10.34-1.07-12.37-3.1s-14.7-35.19-14.7-35.19h0l13.85,44.39a12.27,12.27,0,0,0,10.84,8.61c.32,0,.63,0,.95,0a12.26,12.26,0,0,0,11.05-6.91Z"/><path class="cls-16" d="M234.42,157.1a8.09,8.09,0,0,0-10,5.57L210.9,210.25l14.89,6.44c.25-.66.49-1.33.69-2L240,167.1A8.09,8.09,0,0,0,234.42,157.1Z"/><path class="cls-10" d="M138.76,215a13.89,13.89,0,0,0-2.44,2.94,12.22,12.22,0,0,0,7.24,6.08,6,6,0,0,0,.49-.93c1.4-3.37.87-11.45.87-11.45A12.46,12.46,0,0,0,138.76,215Z"/><path class="cls-9" d="M204.45,214.81l-56.36-3.63a8.1,8.1,0,1,0-1,16.16L203.42,231c.47,0,1,0,1.42,0a22.64,22.64,0,0,0,20.95-14.32l-14.89-6.44A6.32,6.32,0,0,1,204.45,214.81Z"/><path class="cls-15" d="M204.84,231a22.64,22.64,0,0,0,20.95-14.32L214.7,211.9a11.53,11.53,0,0,1,.06,5.57c-.85,4.53-7.23,6.38-13.28,6.16-5.71-.22-55,1.41-59.66-10.06a8.09,8.09,0,0,0,5.23,13.77L203.42,231C203.89,231,204.37,231,204.84,231Z"/><path class="cls-7" d="M212,202.26l17.82,7.23a1.28,1.28,0,0,1,.72,1.64l-2.07,5.5a1.3,1.3,0,0,1-1.73.73l-18-7.65a1.29,1.29,0,0,1-.68-1.7l2.25-5.08A1.29,1.29,0,0,1,212,202.26Z"/><path class="cls-9" d="M131,163.86h0a2.43,2.43,0,0,1-1-3.27l4-7.44a2.41,2.41,0,0,1,3.26-1h0a2.4,2.4,0,0,1,1,3.26l-4,7.44A2.42,2.42,0,0,1,131,163.86Z"/><path class="cls-9" d="M128.7,157.21s1.05-5.47.45-8.84-3.9-5.82-5.25-3.66,1.12,3.13,1.35,6.2-1.75,9.22-1.75,9.22Z"/><path class="cls-20" d="M95.51,224h62.82a4.64,4.64,0,0,1,4.64,4.64v2.76a0,0,0,0,1,0,0H95.51a0,0,0,0,1,0,0V224A0,0,0,0,1,95.51,224Z"/><path class="cls-20" d="M131.79,231.35H33.16L6.25,155.42h94.29a6.15,6.15,0,0,1,5.79,4.09Z"/><path class="cls-8" d="M123.45,231.35H24.82L.29,162.13A5,5,0,0,1,5,155.42H92.21A6.12,6.12,0,0,1,98,159.51Z"/><path class="cls-21" d="M238.82,165.89c-.8,2.73-4.07,4.18-7.3,3.23s-5.21-3.93-4.41-6.66,4.07-4.18,7.31-3.23S239.62,163.16,238.82,165.89Z"/><path class="cls-22" d="M128.86,174.66c-2.74.77-5.81-1.65-6.86-5.39s.32-7.41,3.06-8.18,5.82,1.65,6.87,5.39S131.61,173.89,128.86,174.66Z"/><path class="cls-22" d="M177.31,216.87c-.13,1.54-6.79,2.26-14.89,1.6s-14.57-2.44-14.44-4,6.79-2.26,14.89-1.6S177.43,215.33,177.31,216.87Z"/><path class="cls-7" d="M88.45,164.17H38.53a2,2,0,0,1-2-2h0a2,2,0,0,1,2-2H88.45a2,2,0,0,1,2,2h0A2,2,0,0,1,88.45,164.17Z"/><path class="cls-7" d="M29.55,164.17H10.28a2,2,0,0,1-2-2h0a2,2,0,0,1,2-2H29.55a2,2,0,0,1,2,2h0A2,2,0,0,1,29.55,164.17Z"/><path class="cls-23" d="M117.9,215.68s-36.42,3.87-65.2-5.87A115,115,0,0,1,6.79,180.45l18,50.9h98.63Z"/><rect class="cls-24" x="10.01" y="231.35" width="239.36" height="15.85" rx="2.64" ry="2.64"/><path class="cls-25" d="M131.64,139.13h0a1.69,1.69,0,0,1-1.73-1.64l-.32-11a1.7,1.7,0,0,1,1.64-1.74h0a1.68,1.68,0,0,1,1.73,1.64l.32,11A1.69,1.69,0,0,1,131.64,139.13Z"/><path class="cls-25" d="M140.92,143.73h0a1.68,1.68,0,0,0,2.35.39l8.95-6.41a1.67,1.67,0,0,0,.39-2.35h0a1.68,1.68,0,0,0-2.35-.39l-8.95,6.41A1.67,1.67,0,0,0,140.92,143.73Z"/><path class="cls-25" d="M137.54,139.1h0a1.67,1.67,0,0,1-.75-2.26l4.94-9.84a1.69,1.69,0,0,1,2.27-.75h0a1.69,1.69,0,0,1,.74,2.27l-4.94,9.83A1.67,1.67,0,0,1,137.54,139.1Z"/><circle class="cls-1" cx="42.12" cy="89.26" r="30.11" transform="translate(-50.78 55.92) rotate(-45)"/><circle class="cls-1" cx="90.47" cy="13.28" r="13.28"/><path class="cls-1" d="M102.72,53.63H49.9a5.78,5.78,0,0,1-5.78-5.78h0a5.78,5.78,0,0,1,5.78-5.78h52.82a5.78,5.78,0,0,1,5.78,5.78h0A5.78,5.78,0,0,1,102.72,53.63Z"/></g></g></svg>