<?xml version="1.0" encoding="UTF-8"?>
<svg width="501px" height="443px" viewBox="0 0 501 443" version="1.1" xmlns="http://www.w3.org/2000/svg" xmlns:xlink="http://www.w3.org/1999/xlink">
    <!-- Generator: Sketch 50 (54983) - http://www.bohemiancoding.com/sketch -->
    <title>bg-image</title>
    <desc>Created with Sketch.</desc>
    <defs></defs>
    <g id="Page-1" stroke="none" stroke-width="1" fill="none" fill-rule="evenodd">
        <g id="bg-image" transform="translate(-2.000000, -13.000000)">
            <g id="thinking-girl" opacity="0.4136" transform="translate(159.000000, 249.000000)" fill-rule="nonzero">
                <path d="M134.1,202.4 L168.7,202.4 C137.7,199.4 109.2,183.8 89.9,159.3 C70.6,134.8 62.3,103.4 66.7,72.5 C54.9,126.4 83.2,181 134.1,202.4 Z" id="Shape" fill="#959595"></path>
                <path d="M244.7,182.7 C228.8,193.7 210.3,200.5 191,202.4 L222.4,202.4 C229.7,199.3 236.7,195.5 243.2,191 C269.3,173 286.7,144.8 291.2,113.4 C285,141.6 268.4,166.3 244.7,182.7 Z" id="Shape_1_" fill="#959595"></path>
                <path d="M318.4,113.4 L271.5,113.4 C268.3,113.4 265.8,110.8 265.8,107.6 C265.8,104.4 268.4,101.9 271.6,101.9 L300.8,101.9 L315,86.3 C321.3,79.4 323.3,69.5 320.2,60.7 C317.1,51.9 309.4,45.4 300.1,44 L83.3,9.8 C74,8.3 64.6,12.1 59,19.7 C53.4,27.3 52.3,37.3 56.3,45.8 L129.5,202.3 L209.8,202.3 L280,124.9 L318.5,124.9 C321.7,124.9 324.3,122.3 324.3,119.1 C324.3,115.9 321.6,113.4 318.4,113.4 Z" id="Shape_2_" fill="#959595"></path>
                <path d="M337.6,125 L333.4,125 C330.2,125 327.6,122.4 327.6,119.2 C327.6,116 330.2,113.4 333.4,113.4 L337.6,113.4 C340.8,113.4 343.4,116 343.4,119.2 C343.4,122.4 340.8,125 337.6,125 Z" id="Shape_3_" fill="#959595"></path>
                <path d="M306.7,113.4 L271.6,113.4 C268.4,113.4 265.9,110.8 265.9,107.6 C265.9,104.4 268.5,101.9 271.7,101.9 L297,101.9 C267.8,71.8 223.2,62.4 184.3,78.1 C145.4,93.8 119.9,131.6 119.9,173.6 C119.9,176.7 120,179.8 120.3,182.9 L129.4,202.4 L209.7,202.4 L279.9,125 L313.9,125 C311.8,121 309.3,117.1 306.7,113.4 Z" id="Shape_4_" fill="#5A5A5A" opacity="0.2"></path>
                <circle id="Oval" fill="#5A5A5A" opacity="0.2" cx="119.2" cy="86.9" r="10.9"></circle>
                <path d="M243.6,136 L229,129 L228.3,124.6 C228.4,124.3 228.5,124 228.5,123.7 C228.6,123.4 228.6,123.3 228.7,123 C228.8,122.7 228.8,122.4 228.9,122.2 L229.1,122 C230,122.5 230.8,123.1 231.6,123.8 C233,124.9 234.5,128.1 234.5,128.1 C234.4,126.4 233.9,124.8 233.1,123.4 C232.4,122.4 231.5,121.6 230.5,121 C231.6,121.1 232.7,121.3 233.7,121.7 C236.9,122.9 240,127.7 240,127.7 C240,127.7 239.5,123.4 236.5,120.9 C235.5,120.1 234.3,119.4 233.1,118.9 C236.1,116.2 238.7,113 240.8,109.5 C241.3,108.6 241.8,107.7 242.3,106.7 C243.3,104.7 244,102.6 244.6,100.5 C245,98.7 245.3,97 245.5,95.2 C245.6,93.9 245.6,92.6 245.6,91.4 C245.5,90 245.4,88.7 245.2,87.3 C245.1,86.5 244.9,85.7 244.8,85 C244.7,84.6 244.6,84.3 244.6,84 L244.3,82.8 C244.2,82.3 244.1,81.9 243.9,81.5 C243.8,81.3 243.8,81 243.7,80.8 C243.5,80.3 243.4,79.8 243.2,79.3 L243.1,78.9 C242.9,78.3 242.7,77.8 242.5,77.3 C242.5,77.2 242.4,77.1 242.4,77.1 C242.2,76.5 241.9,76 241.7,75.4 C241.7,75.4 241.7,75.3 241.7,75.3 C241.4,74.7 241.2,74.2 240.9,73.6 C240.8,73.4 240.7,73.1 240.5,72.9 C240.8,72.7 241.1,72.6 241.3,72.4 C241.6,72.2 241.9,72 242.2,71.8 C242.7,71.4 243.3,70.9 243.7,70.4 C243.9,70.2 244.1,69.9 244.3,69.6 C244.8,68.9 245.3,68.1 245.7,67.3 C246.1,66.5 246.4,65.7 246.7,64.8 C246.9,64.2 247,63.8 247,63.8 C246.1,65.2 244.9,66.3 243.5,67.1 C242.7,67.5 241.9,67.9 241.1,68.3 C241.7,67.7 242.3,67.1 242.8,66.4 C243.1,66 243.4,65.6 243.6,65.2 C243.7,65.1 243.7,65 243.8,64.9 C244,64.6 244.2,64.2 244.4,63.9 C244.4,63.8 244.5,63.7 244.5,63.6 C244.7,63.2 244.9,62.8 245.1,62.4 C245.2,62.3 245.2,62.1 245.3,62 C245.4,61.7 245.5,61.4 245.6,61.1 C245.7,60.8 245.7,60.8 245.7,60.6 C245.8,60.2 245.9,59.9 245.9,59.5 C245.9,59.3 246,59.1 246,58.9 L246.1,58.2 C246.1,58 246.1,57.7 246.1,57.5 C246.1,57.3 246.1,57.1 246.1,56.9 C246.1,56.4 246.1,55.9 246,55.4 C246,55.3 246,55.2 246,55.1 C246,54.8 245.9,54.5 245.9,54.2 C245.9,54.1 245.9,54 245.8,53.9 C245.6,52.9 245.4,52 245,51 L244.9,50.8 C244.8,50.5 244.6,50.2 244.5,49.8 C243.4,47.5 241.9,45.6 239.9,44 C239.5,43.7 239,43.4 238.6,43.1 C238.4,43 238.3,42.9 238.1,42.8 C237.9,42.7 237.5,42.5 237.3,42.3 C237,42.2 236.9,42.1 236.7,42 C236.5,41.9 236.2,41.8 235.9,41.7 C235.6,41.6 235.5,41.5 235.2,41.5 L234.4,41.2 L233.7,41 L232.9,40.8 L232.2,40.7 C231.9,40.7 231.7,40.6 231.4,40.6 L230.7,40.6 L230,40.6 L229.3,40.6 C229,40.6 228.8,40.6 228.5,40.7 L227.8,40.8 L227,40.9 L226.3,41 C226,41.1 225.8,41.1 225.5,41.2 L224.8,41.4 C224.5,41.5 224.3,41.6 224,41.7 L223.4,42 L222.6,42.4 L222,42.7 L221.3,43.2 C221.1,43.3 220.9,43.4 220.8,43.6 C220.6,43.7 220.3,44 220.1,44.2 C219.9,44.4 219.8,44.4 219.6,44.6 C219.4,44.7 219.1,45.1 218.8,45.3 L218.4,45.7 C218,46.1 217.7,46.5 217.4,46.9 C217.1,47.3 216.8,47.8 216.5,48.2 C216.4,48.4 216.2,48.7 216.1,48.9 L215.7,49.5 C212.4,47.2 208.7,45.9 204.7,45.5 C194,44.6 180.1,47.1 167.1,57.8 C158.4,64.9 157.3,71.3 158.2,75.8 C158.2,76 158.3,76.2 158.3,76.4 C158.3,76.4 158.3,76.5 158.3,76.5 C158.3,76.7 158.4,76.9 158.5,77.1 L158.5,77.2 C158.5,77.4 158.6,77.6 158.7,77.7 C158.7,77.7 158.7,77.8 158.7,77.8 C158.8,78 158.8,78.1 158.9,78.3 C158.9,78.3 158.9,78.4 159,78.4 C159.1,78.6 159.1,78.7 159.2,78.9 L159.3,79 L159.5,79.4 L159.5,79.5 L159.7,79.9 L159.8,80 L160,80.3 L160.1,80.4 C160.2,80.5 160.2,80.6 160.3,80.7 C160.3,80.7 160.3,80.8 160.3,80.8 L160.5,81.1 L160.5,81 L160.7,81.2 L160.7,81.3 L160.8,81.5 C160.8,81.5 160.9,81.6 160.9,81.7 L161,81.8 L161,81.9 C161,81.9 151.2,90.7 162,125.6 C166.1,139 172.5,151.5 183.7,154.9 L171.7,188.9 C170,185.9 166.8,184.1 163.4,184.1 L155.8,184.1 C151.5,184.1 147.7,187 146.6,191.1 C146.6,191.3 146.5,191.4 146.5,191.6 C146.5,191.7 146.4,191.8 146.4,192 C146.4,192.1 146.3,192.3 146.3,192.5 C146.3,192.7 146.3,192.7 146.3,192.8 C146.3,193.1 146.3,193.4 146.3,193.7 C146.3,195.5 146.8,197.2 147.7,198.8 L145.7,198.8 L122.9,134.4 C122,131.9 119.7,130.3 117.1,130.3 L95.7,130.3 L132.8,202.5 L209.6,202.6 L255.6,151.8 C254.3,144.8 249.8,139 243.6,136 Z" id="Shape_5_" fill="#050505" opacity="0.2"></path>
                <polygon id="Shape_6_" fill="#1E1E1E" points="166.7 192.2 185.4 139.1 170.1 133.7 152.4 183.9"></polygon>
                <polygon id="Shape_7_" fill="#E8E8E8" points="220.9 204.1 213.1 113.2 184.6 125.4 172.5 149.1 172.3 204.6"></polygon>
                <path d="M180.1,206.2 L213.5,206.2 L212,180.9 L202.5,172.3 C200.5,172 198.4,172.8 197.1,174.3 C194.6,176.9 190.5,177.5 188.1,175 C185.7,172.4 182.3,170.6 179.5,171.3 C176.7,172 180.7,200.6 180.7,200.6 L180.1,206.2 Z" id="Shape_8_" fill="#BABABA"></path>
                <path d="M184.6,125.4 L181.4,107.9 L205.9,70.5 L213.1,113.1 L212.7,121.5 C212.2,130.6 205,137.9 195.9,138.3 L190.6,138.6 C188.9,138.7 187.3,138.1 186.1,136.9 C184.9,135.7 184.3,134.1 184.3,132.5 L184.6,125.4 Z" id="Shape_9_" fill="#B3B3B3"></path>
                <path d="M210.4,97.2 C208.7,102.3 202.8,112.6 196.3,118.2 C191.6,122.2 187.1,122.7 184.1,122.4 L181.4,107.9 L191.3,92.7 L207.8,81.6 L210.4,97.2 Z" id="Shape_10_" fill="#919191"></path>
                <path d="M154.9,175.9 L171.5,185.6 C172.1,185.9 172.3,186.7 172,187.3 L169.2,192.5 C169,192.8 168.7,193 168.4,193.1 C168.1,193.2 167.7,193.1 167.4,193 L150.7,182.9 C150.4,182.7 150.2,182.4 150.1,182.1 C150,181.8 150.1,181.4 150.3,181.1 L153.2,176.4 C153.5,175.8 154.3,175.6 154.9,175.9 Z" id="Shape_11_" fill="#E8E8E8"></path>
                <path d="M170.1,133 L164.9,165.9 C164.4,168.9 164.6,171.9 165.4,174.8 L168.2,185.2 L171.9,182.6 L170.1,133 Z" id="Shape_12_" fill="#2B2B2B"></path>
                <path d="M205.8,187.5 L206,206.2 L236.5,206.2 L235.5,203.3 L240.2,142 C240.9,132.9 235.9,124.3 227.7,120.3 L213.1,113.2 L205.2,142.8 L205.3,151 L202.5,168.5 C202,171.5 202.2,174.5 203,177.4 L205.8,187.5 Z" id="Shape_13_" fill="#2B2B2B"></path>
                <path d="M233.3,206.2 L231,201.1 L238.5,139.3 L216.3,168.2 C216.3,168.2 216.1,182.5 215.3,180.7 C214.5,178.9 213,170.9 213,170.9 L209.1,188.9 L207.3,206 L233.3,206.2 Z" id="Shape_14_" fill="#1E1E1E"></path>
                <path d="M205.8,187.5 L206,206.2 L210.2,206.2 C211.3,203.3 212.2,200.6 212.7,198.9 C214.1,194.1 212.5,184 211.9,181 C211.5,179.2 212.5,172 213.4,166.4 L214.5,159.4 L210.9,146.7 L205.2,151.5 L202.5,168.6 C202,171.6 202.2,174.6 203,177.5 L205.8,187.5 Z" id="Shape_15_" fill="#050505"></path>
                <path d="M182.4,206.2 L182.9,186.9 L180.5,178.2 C179.7,175.3 179.6,172.3 180,169.3 L184,144.1 L184.5,125.5 L183.6,120.7 L170.1,133 L167.4,206.1 L182.4,206.2 Z" id="Shape_16_" fill="#2B2B2B"></path>
                <path d="M169,185.1 C168.9,187.2 168,196.9 168,196.9 L167.8,206.2 L181.9,206.2 L181.3,197.1 L174,173.7 C172.6,174.3 171.2,174.6 169.7,174.7 C168.4,174.9 167,174.6 165.8,174 C165.9,174 169.1,182.9 169,185.1 Z" id="Shape_17_" fill="#1E1E1E"></path>
                <path d="M140.3,168.2 L147.9,168.2 C153.2,168.2 157.5,172.5 157.5,177.8 C157.5,180.4 156.5,182.8 154.7,184.6 C152.9,186.4 150.4,187.4 147.9,187.4 L140.3,187.4 C135,187.4 130.7,183.1 130.7,177.8 C130.7,172.5 135,168.2 140.3,168.2 Z" id="Shape_18_" fill="#B3B3B3"></path>
                <path d="M173.4,160.9 L179.6,147.6 L182.5,154.1 L180,169.3 C179.5,172.3 179.7,175.3 180.5,178.2 L182.9,186.9 L182.5,202.5 C182.5,202.5 177.3,188.7 174.6,180.9 C171.8,172.9 173.4,160.9 173.4,160.9 Z" id="Shape_19_" fill="#050505"></path>
                <polygon id="Shape_20_" fill="#121212" points="217.9 115.6 213.4 144.6 205.3 151.4 205.2 142.8 213.1 113.2"></polygon>
                <polygon id="Shape_21_" fill="#121212" points="181.4 122.7 178.4 145 182.5 154.1 184.1 144.1 184.6 125.4 183.7 120.6"></polygon>
                <path d="M157.6,177.9 C157.6,176.5 157.3,175.1 156.7,173.8 C155.5,176.1 153.4,177.8 151,178.5 C145.9,180.2 134.7,180.7 131.3,174.9 C131,175.8 130.8,176.8 130.8,177.8 C130.8,183.1 135.1,187.4 140.4,187.4 L148,187.4 C150.6,187.4 153,186.4 154.8,184.6 C156.5,182.8 157.6,180.4 157.6,177.9 Z" id="Shape_22_" fill="#A4A4A4"></path>
                <path d="M96.5,182.9 L159.3,182.9 C161.9,182.9 163.9,185 163.9,187.5 L163.9,190.3 L96.5,190.3 L96.5,182.9 Z" id="Shape_23_" fill="#717171"></path>
                <path d="M132.8,190.3 L34.2,190.3 L7.2,114.4 L101.5,114.4 C104.1,114.4 106.4,116 107.3,118.5 L132.8,190.3 Z" id="Shape_24_" fill="#717171"></path>
                <path d="M124.4,190.3 L25.8,190.3 L1.3,121.1 C0.7,119.6 1,117.9 1.9,116.5 C2.8,115.2 4.4,114.4 6,114.4 L93.2,114.4 C95.8,114.4 98.1,116 99,118.5 L124.4,190.3 Z" id="Shape_25_" fill="#BABABA"></path>
                <path d="M89.4,123.1 L39.5,123.1 C38.4,123.1 37.5,122.2 37.5,121.1 C37.5,120 38.4,119.1 39.5,119.1 L89.4,119.1 C90.5,119.1 91.4,120 91.4,121.1 C91.4,122.2 90.6,123.1 89.4,123.1 Z" id="Shape_26_" fill="#E8E8E8"></path>
                <path d="M30.5,123.1 L11.3,123.1 C10.2,123.1 9.3,122.2 9.3,121.1 C9.3,120 10.2,119.1 11.3,119.1 L30.6,119.1 C31.7,119.1 32.6,120 32.6,121.1 C32.6,122.2 31.7,123.1 30.5,123.1 Z" id="Shape_27_" fill="#E8E8E8"></path>
                <path d="M118.9,174.6 C118.9,174.6 82.5,178.5 53.7,168.7 C36.3,162.7 20.5,152.7 7.8,139.3 L25.8,190.2 L124.4,190.2 L118.9,174.6 Z" id="Shape_28_" fill="#ABABAB"></path>
                <path d="M13.7,190.3 L247.7,190.3 C249.2,190.3 250.4,191.5 250.4,193 L250.4,203.9 C250.4,205.4 249.2,206.6 247.7,206.6 L13.7,206.6 C12.2,206.6 11,205.4 11,203.9 L11,193 C11,191.5 12.2,190.3 13.7,190.3 Z" id="Rectangle-path" fill="#474747"></path>
                <path d="M214.1,105 C215.4,105.5 216.5,106.4 217.3,107.6 C218.1,109 218.6,110.6 218.7,112.3 C218.7,112.3 217.1,109.1 215.8,108 C214.9,107.3 213.9,106.6 212.9,106 L214.1,105 Z" id="Shape_29_" fill="#383838"></path>
                <path d="M214.6,102 C216.7,102.7 218.8,103.8 220.6,105.1 C223.6,107.6 224.1,111.9 224.1,111.9 C224.1,111.9 221,107.1 217.8,105.9 C216.1,105.2 214.1,105 212.3,105.4 L214.6,102 Z" id="Shape_30_" fill="#383838"></path>
                <path d="M224.2,28 C227.6,30.6 229.7,34.5 230.2,38.7 C230.7,42.9 229.5,47.2 226.9,50.5 C226.4,51.2 225.8,51.8 225.2,52.4 C226,52.1 226.8,51.7 227.6,51.2 C229,50.3 230.2,49.2 231.1,47.8 C231.1,47.8 229.9,54.2 224.3,56.9 C220.5,58.8 221.4,56.3 222.3,54.5 C215.3,58.4 206.5,56.6 201.7,50.2 C196.9,43.8 197.6,34.8 203.3,29.2 C208.9,23.6 217.9,23.1 224.2,28 Z" id="Shape_31_" fill="#383838"></path>
                <path d="M226.2,41.7 C227.5,39.2 228.4,36.6 228.9,33.9 C231.5,39.4 230.7,45.8 227,50.6 C226.5,51.3 225.9,51.9 225.3,52.4 C226.1,52.1 226.9,51.7 227.7,51.2 C229.1,50.3 230.3,49.2 231.2,47.8 C231.2,47.8 230,54.2 224.4,56.9 C220.6,58.8 221.5,56.3 222.4,54.6 C221.1,55.4 219.6,55.9 218.1,56.3 C217.7,54.1 217.5,51.8 217.7,49.5 C217.6,49.4 222.2,49.4 226.2,41.7 Z" id="Shape_32_" fill="#2A2A2A"></path>
                <path d="M201.7,30.7 C206.8,24.2 215.9,22.6 222.9,27 C223.1,28.3 223.1,30.6 222.2,31.9 C218.8,36.6 209.8,37.5 209.8,37.5 C211.4,38.2 213.2,38.5 214.9,38.4 C216.4,38.2 217.8,38 219.2,37.6 C219.2,37.6 215.5,41.2 208.3,41.3 C205.5,41.3 201.7,42.1 198.3,42.1 C197.9,38 199.1,33.9 201.7,30.7 Z" id="Shape_33_" fill="#444444"></path>
                <path d="M206,39.4 C206,39.4 224.9,45.8 229.1,71.4 C232.8,93.8 212.9,106.4 212.9,106.4 L202.9,51 L206,39.4 Z" id="Shape_34_" fill="#525252"></path>
                <path d="M177.8,139.8 C198,137.4 214.6,116.4 213.5,99.4 L206,39.4 L205.1,38.2 L158,42.8 L145.6,66 C145.6,66 135.8,74.8 146.6,109.7 C151.7,126.5 160.3,141.9 177.8,139.8 Z" id="Shape_35_" fill="#B3B3B3"></path>
                <path d="M210.7,27.3 C212.2,26.8 213.9,26.8 215.5,27.3 C217.6,28.1 216.7,30.9 214.5,32.8 C212.3,34.7 207.8,34.5 206.7,32.2 C205.6,29.9 209.3,27.6 210.7,27.3 Z" id="Shape_36_" fill="#525252"></path>
                <path d="M177.1,93.4 C177.3,95.4 179.2,96.8 181.2,96.6 C183.2,96.4 184.6,94.5 184.4,92.5 C184.2,90.5 182.4,89.1 180.4,89.3 C179.4,89.4 178.6,89.9 178,90.7 C177.4,91.5 177,92.4 177.1,93.4 Z" id="Shape_37_" fill="#383838"></path>
                <path d="M149,96.7 C149.2,98.7 151.1,100.1 153.1,99.9 C155.1,99.7 156.5,97.9 156.3,95.9 C156.1,93.9 154.3,92.5 152.3,92.7 C151.3,92.8 150.5,93.3 149.9,94.1 C149.2,94.7 148.9,95.7 149,96.7 Z" id="Shape_38_" fill="#383838"></path>
                <path d="M152.2,95.2 C152.3,95.8 152.7,96.2 153.2,96.4 C153.7,96.6 154.3,96.4 154.7,95.9 C155.1,95.5 155.1,94.8 154.8,94.3 C154.5,93.8 154,93.5 153.4,93.6 C152.7,93.7 152.1,94.4 152.2,95.2 Z" id="Shape_39_" fill="#E8E8E8"></path>
                <path d="M172.4,78.5 C172.5,78.2 172.5,78 172.6,77.7 C172.8,77 173.2,76.4 173.6,75.8 C173.9,75.4 174.2,75 174.6,74.7 C175,74.3 175.4,74 175.9,73.7 C176.2,73.5 176.4,73.4 176.7,73.3 C177,73.2 177.3,73.1 177.6,73 C177.9,72.9 178.2,72.8 178.5,72.8 C178.7,72.8 178.8,72.8 179,72.7 L179.4,72.7 C180,72.7 180.6,72.7 181.2,72.7 C181.8,72.8 182.4,72.9 182.9,73 C183.4,73.1 183.9,73.3 184.4,73.6 C184.8,73.8 185.3,74.1 185.6,74.4 C186.2,74.8 186.7,75.3 187.1,75.9 C187.3,76.1 187.4,76.4 187.5,76.6 C186.8,76 186,75.4 185.2,75.1 C184.8,74.9 184.4,74.8 184,74.7 C183.5,74.6 183.1,74.5 182.6,74.4 C182.1,74.3 181.6,74.3 181.1,74.2 C180.6,74.2 180,74.2 179.5,74.2 L179,74.2 L178.6,74.2 C178.3,74.2 178.1,74.3 177.9,74.3 C177.4,74.4 176.9,74.6 176.5,74.8 C175.7,75.2 174.9,75.7 174.2,76.3 C173.7,76.7 173.2,77.2 172.8,77.7 C172.5,78.3 172.4,78.5 172.4,78.5 Z" id="Shape_40_" fill="#383838"></path>
                <path d="M159.3,82.9 C158.7,83.6 158,84.2 157.3,84.7 C156.5,85.2 155.7,85.7 154.9,86 C154.4,86.2 153.9,86.4 153.4,86.5 C152.9,86.6 152.3,86.7 151.7,86.7 C151.1,86.7 150.6,86.7 150,86.6 C149.5,86.5 149,86.4 148.4,86.3 C147.5,86 146.6,85.6 145.8,85.1 C145.5,84.9 145.2,84.6 144.9,84.3 C144.7,84.1 144.5,83.9 144.4,83.6 C144.3,83.4 144.2,83.2 144.1,82.9 C144.3,83.1 144.5,83.2 144.7,83.3 C145.2,83.6 145.8,83.9 146.3,84.1 C147.1,84.4 147.9,84.6 148.7,84.8 C149.1,84.9 149.6,85 150.1,85 C150.3,85 150.6,85.1 150.8,85.1 C151,85.1 151.3,85.1 151.5,85.1 C152.5,85.1 153.4,85 154.3,84.7 C154.8,84.6 155.2,84.5 155.6,84.3 C156,84.2 156.4,84 156.8,83.9 C157.5,83.6 158.1,83.3 158.5,83.1 C159,83 159.3,82.9 159.3,82.9 Z" id="Shape_41_" fill="#383838"></path>
                <path d="M180.7,93 L181.9,92.6 C182.2,92.5 182.6,92.3 183,92.2 C183.4,92 183.7,91.8 184.1,91.6 C184.3,91.5 184.4,91.4 184.6,91.3 C184.8,91.2 184.9,91.1 185.1,90.9 C185.3,90.8 185.4,90.6 185.5,90.5 C185.7,90.4 185.7,90.2 185.9,90.1 C186,90 186.1,89.9 186.2,89.7 C186.3,89.6 186.4,89.5 186.4,89.4 L186.6,89.1 C186.6,89.1 186.6,89.2 186.6,89.5 C186.6,89.8 186.6,90.2 186.5,90.5 C186.5,90.7 186.4,90.9 186.3,91.1 C186.2,91.3 186.1,91.5 185.9,91.7 C185.8,91.9 185.6,92.1 185.4,92.3 C185.2,92.5 185,92.7 184.7,92.8 C183.8,93.3 182.8,93.6 181.8,93.4 C181.5,93.4 181.1,93.2 180.7,93 Z" id="Shape_42_" fill="#383838"></path>
                <path d="M180.3,91.9 C180.4,92.7 181.1,93.2 181.9,93.1 C182.7,93 183.2,92.3 183.1,91.5 C183,90.7 182.3,90.2 181.5,90.3 C180.7,90.4 180.2,91.1 180.3,91.9 Z" id="Shape_43_" fill="#E8E8E8"></path>
                <path d="M152.6,96.2 C152.3,96.5 151.9,96.8 151.5,96.9 C150.5,97.3 149.5,97.3 148.5,97 C148.2,96.9 148,96.8 147.7,96.7 C147.5,96.6 147.2,96.4 147,96.2 C146.8,96 146.6,95.8 146.5,95.6 C146.4,95.4 146.2,95.2 146.2,95 C146,94.7 145.9,94.4 145.9,94.1 C145.9,94 145.9,93.9 145.8,93.7 C145.9,93.8 146,93.8 146.1,93.9 L146.4,94.1 C146.5,94.2 146.7,94.3 146.8,94.4 C146.9,94.5 147.1,94.6 147.2,94.7 C147.4,94.8 147.5,94.9 147.7,95 C147.9,95.1 148.1,95.2 148.2,95.3 C148.4,95.4 148.6,95.5 148.8,95.5 C149.2,95.6 149.6,95.7 150,95.8 C150.4,95.9 150.8,95.9 151.1,96 L152.6,96.2 Z" id="Shape_44_" fill="#383838"></path>
                <path d="M203.4,95 C201.7,85 197.9,75.5 192.1,67.1 C192.1,67.1 198.8,62.6 209.3,66.1 L213.4,99.5 C214.4,114.5 201.5,132.7 184.6,138.3 C197.1,128.2 205.7,110.7 203.4,95 Z" id="Shape_45_" fill="#A4A4A4"></path>
                <path d="M206,39.4 C206,39.4 185.4,54.9 185.3,60.6 C185.2,66.3 195.9,66.9 202.5,74 C206.5,78.3 209.8,83.4 212.2,88.8 L210.9,58.4 L206,39.4 Z" id="Shape_46_" fill="#525252"></path>
                <path d="M192.5,47.3 C188.9,50.5 185.7,54.2 183.1,58.3 C183.1,58.3 171.4,56.2 161.6,58.3 C155.7,59.5 150.2,62.2 145.6,66 C145.6,66 135,54.9 151.4,41.5 C164.5,30.8 178.3,28.3 189,29.2 C195.4,29.8 201.2,33 205.1,38 C205.1,38.2 200.7,40.3 192.5,47.3 Z" id="Shape_47_" fill="#525252"></path>
                <path d="M205.4,64.9 C205.9,64.7 206.3,64.5 206.8,64.2 C207.2,64 207.7,63.7 208.1,63.4 C208.4,63.2 208.8,62.9 209.1,62.7 L209.4,62.4 L209.9,62 L210.3,61.7 L210.6,61.4 L211,61 C214.2,57.7 214.6,54.9 214.6,54.9 C215,57.2 214.9,59.6 214.4,61.9 C214,63.6 213.4,65.2 212.6,66.7 C212.6,66.7 218.9,68.7 222,65.6 C224.1,63.5 224.2,59.3 223.9,56 C226.5,60.8 228.3,66.1 229.1,71.5 C232.8,93.9 212.9,106.5 212.9,106.5 L208.4,81.8 C206.7,79 204.7,76.5 202.5,74.1 C199.1,70.4 194.5,68.5 191,66.7 C191,66.6 199.3,67.4 205.4,64.9 Z" id="Shape_48_" fill="#444444"></path>
                <path d="M212.1,100.8 L209.6,84.3 C210.4,83.9 211.3,83.7 212.2,83.5 C215.6,83.1 218.9,84.7 220.7,87.6 C222.5,90.5 222.4,94.2 220.6,97 C218.8,99.8 215.4,101.3 212,100.8 L212.1,100.8 Z" id="Shape_49_" fill="#B3B3B3"></path>
                <path d="M203.8,75.3 C206.9,79.5 209,84.3 209.9,89.4 L210.6,93.1 L211.6,72.6 L203.8,75.3 Z" id="Shape_50_" fill="#444444"></path>
                <path d="M195.8,56.5 C195.8,56.5 196.4,52.7 201,49.6 C205.6,46.5 208.7,46 210.9,47.3 C213.4,48.8 209.4,57 203.5,59.3 C198.3,61.2 195.3,60 195.8,56.5 Z" id="Shape_51_" fill="#616161"></path>
                <path d="M160.3,38.8 C160.3,38.8 162.8,35 168.9,33.7 C175,32.4 178.4,33.2 179.9,35.6 C181.7,38.3 173.6,45.4 166.6,45.2 C160.4,45 158,42.4 160.3,38.8 Z" id="Shape_52_" fill="#616161"></path>
                <path d="M143.6,54.2 C145.7,48.2 153,42.4 153,42.4 C153,42.4 148.8,49.2 153.9,50.1 C159,51 180,49.1 185.8,42 C191.6,34.9 186.6,32 186.6,32 C190,32.1 193.3,32.7 196.5,33.9 C199.3,35 201.8,36.8 203.7,39.1 C199.7,41.6 195.9,44.4 192.3,47.6 C188.7,50.8 185.5,54.5 182.9,58.6 C182.9,58.6 171.2,56.5 161.4,58.6 C155.5,59.8 150,62.5 145.4,66.3 C143.8,64.4 142.7,62.2 142.3,59.8 C142.6,57.8 143,55.9 143.6,54.2 Z" id="Shape_53_" fill="#444444"></path>
                <path d="M183.1,138.8 C181,132.1 177.3,120.7 177,120.6 C176.7,120.5 159.4,124.7 159.4,124.7 C159.4,124.7 160.1,129.6 162.9,131.5 C165.8,133.4 171.4,133.1 171.4,133.1 L173.8,140.1 C175.1,140.1 176.4,140.1 177.6,139.9 C179.6,139.6 181.4,139.3 183.1,138.8 Z" id="Shape_54_" fill="#A4A4A4"></path>
                <path d="M204.6,190.4 C204.3,190.4 204,190.4 203.7,190.4 C198.9,190.1 194.7,187 193,182.5 L173.3,130.6 C173.2,130.5 173.1,130.4 173,130.4 L166.4,130.4 C164.5,130.4 162.7,129.6 161.3,128.3 C160,126.9 159.2,125.1 159.2,123.2 C159.2,119.2 162.4,116 166.4,116 L173,116 C179.1,116 184.6,119.8 186.8,125.5 L204.8,173.2 L212.2,159.6 L224.9,166.5 L215.3,184.1 C213.3,188 209.1,190.4 204.6,190.4 Z" id="Shape_55_" fill="#C0C0C0"></path>
                <path d="M234.1,130.5 C232.2,129.5 230,129.4 227.9,130.1 C225.9,130.8 224.2,132.2 223.2,134.2 L205,170.6 L208.8,169.1 L219.5,175.7 L219.6,177.7 L237.7,141.4 C239.8,137.3 238.1,132.5 234.1,130.5 Z" id="Shape_56_" fill="#121212"></path>
                <path d="M237.5,137.7 C237,140.5 233.9,142.3 230.6,141.8 C227.3,141.2 225,138.5 225.5,135.7 C226,132.9 229.1,131.1 232.4,131.6 C235.7,132.1 238,134.9 237.5,137.7 Z" id="Shape_57_" fill="#464646"></path>
                <path d="M208.7,163.1 L224.9,173.5 C225.5,173.9 225.7,174.7 225.3,175.3 L222.2,180.3 C222,180.6 221.7,180.8 221.4,180.9 C221.1,181 220.7,180.9 220.4,180.7 L204.1,169.9 C203.8,169.7 203.6,169.4 203.6,169.1 C203.5,168.8 203.6,168.4 203.8,168.1 L206.9,163.5 C207.3,162.9 208.1,162.8 208.7,163.1 Z" id="Shape_58_" fill="#E8E8E8"></path>
                <path d="M204.6,190.4 C207.1,190.4 209.5,189.7 211.6,188.2 C200,188.1 195.9,179.7 195.9,179.7 L175.1,125.1 C175.1,125.1 168.2,124.8 164.6,124.3 C162.6,123.9 160.8,122.8 159.5,121.3 C158.9,123.5 159.4,125.8 160.8,127.5 C162.2,129.3 164.3,130.3 166.5,130.3 L173.1,130.3 C173.2,130.3 173.4,130.4 173.4,130.5 L193.1,182.4 C194.8,186.9 199,190 203.8,190.3 C204.1,190.4 204.3,190.4 204.6,190.4 Z" id="Shape_59_" fill="#B3B3B3"></path>
                <path d="M150.8,172.7 C150.8,174.6 147.7,176.2 143.8,176.2 C139.9,176.2 136.8,174.6 136.8,172.7 C136.8,170.8 139.9,169.2 143.8,169.2 C147.7,169.2 150.8,170.8 150.8,172.7 Z" id="Shape_60_" fill="#C0C0C0"></path>
                <path d="M178.8,119.7 C178.8,121.5 175.7,122.9 171.8,122.9 C167.9,122.9 164.8,121.4 164.8,119.7 C164.8,118 167.9,116.5 171.8,116.5 C175.7,116.5 178.8,117.9 178.8,119.7 Z" id="Shape_61_" fill="#CDCDCD"></path>
                <circle id="Oval_1_" fill="#959595" cx="285.8" cy="27" r="23"></circle>
                <circle id="Oval_2_" fill="#959595" transform="translate(238.587260, 11.436640) rotate(-80.061056) translate(-238.587260, -11.436640) " cx="238.58726" cy="11.43664" r="9.40007407"></circle>
            </g>
            <text id="Hmm..-Your-dashboard" fill="#E0E0E0" font-family="Helvetica" font-size="20" font-weight="normal">
                <tspan x="161.9326" y="157">Hmm.. Your dashboard is empty. Lets</tspan>
            </text>
            <text id="go-ahead-and-change-that!-Click-the" fill="#E0E0E0" font-family="Helvetica" font-size="20" font-weight="normal">
                <tspan x="170.3115" y="181">go ahead and change that! Click the</tspan>
            </text>
            <text id="button-in-the-corner!" fill="#E0E0E0" font-family="Helvetica" font-size="20" font-weight="normal">
                <tspan x="238.251" y="205">button in the corner!</tspan>
            </text>
            <g id="arrow" opacity="0.5226" transform="translate(74.833682, 66.646119) scale(-1, 1) rotate(7.000000) translate(-74.833682, -66.646119) translate(7.333682, 8.646119)" fill="#949494" fill-rule="nonzero">
                <path d="M0,116 C0,116 0,115.3 0.1,114.1 C0.2,112.8 0.2,111 0.5,108.7 C0.8,106.4 1,103.5 1.6,100.2 C1.8,98.6 2.2,96.9 2.6,95 C3,93.2 3.4,91.3 4,89.3 C5,85 6.4,80.8 8,76.6 C9.8,71.9 12,67.4 14.5,63 C15.1,61.8 15.8,60.7 16.6,59.5 C17.4,58.3 18,57.2 18.8,56.1 L21.1,52.7 L23.7,49.4 C27.3,44.9 31.4,40.7 35.9,36.9 C40.4,33.1 45.3,29.6 50.6,26.6 C55.6,23.7 60.9,21.2 66.5,19.2 C71.6,17.3 76.9,15.7 82.3,14.5 C84.9,14 87.3,13.4 89.8,13 L93.4,12.4 L96.9,12 C99.2,11.7 101.3,11.5 103.4,11.4 C105.5,11.3 107.5,11.1 109.3,11.1 C113,10.9 116.2,11.1 118.8,11.1 C121.4,11.1 123.5,11.4 124.9,11.5 L127,11.7 L124.9,12 L118.9,12.9 C116.3,13.3 113.2,13.8 109.7,14.4 C107.9,14.7 106.1,15.1 104.1,15.5 C102.1,16 100.1,16.3 98,16.9 L94.7,17.7 L91.4,18.6 C89.1,19.2 86.8,19.9 84.5,20.7 C79.6,22.3 74.8,24.1 70.2,26.2 C67.8,27.2 65.4,28.5 63,29.7 C60.6,30.9 58.3,32.3 56,33.7 C51.3,36.6 46.9,39.8 42.8,43.3 C38.7,46.8 34.9,50.6 31.4,54.6 C28,58.5 24.9,62.6 22.1,66.9 C19.3,71 17,75.3 14.8,79.3 C12.6,83.3 10.8,87.3 9.3,90.9 C8.5,92.7 7.8,94.5 7.1,96.2 C6.4,97.9 5.7,99.5 5.2,101 C4.1,104.1 3.1,106.8 2.4,109 L0.7,114.3 C0.2,115.4 0,116 0,116 Z" id="Shape_62_"></path>
                <path d="M103,0 C104.3,0 105.5,0.1 106.8,0.2 C108,0.3 109.3,0.5 110.5,0.7 C112.9,1.1 115.3,1.5 117.6,2.2 C118.8,2.5 119.9,2.8 121.1,3.1 C122.3,3.4 123.4,3.8 124.5,4.1 C125.6,4.5 126.7,4.8 127.8,5.2 C128.9,5.6 130,6 131.1,6.4 C133.5,7.3 134.7,9.8 133.7,12 C133.5,12.4 133.3,12.7 133,13.1 L132.8,13.3 C132,14.2 131.2,15 130.3,15.9 C129.5,16.8 128.6,17.5 127.7,18.4 C126.8,19.2 125.9,20 125,20.8 C124.1,21.6 123.2,22.4 122.2,23.1 C120.3,24.6 118.3,26 116.2,27.5 C115.1,28.2 114.1,28.8 112.9,29.5 C111.7,30.2 110.6,30.7 109.4,31.3 C109.8,30.2 110.3,29 110.8,27.9 C111.3,26.8 111.9,25.8 112.4,24.7 C113.6,22.6 114.8,20.6 116.2,18.7 C116.9,17.7 117.6,16.8 118.3,15.8 C119,14.8 119.8,14 120.5,13 C121.2,12 122,11.2 122.8,10.3 C123.6,9.4 124.4,8.5 125.2,7.7 L126.9,14.5 C125.8,14 124.7,13.6 123.6,13.1 C122.5,12.6 121.5,12.2 120.3,11.6 C119.1,11 118.4,10.5 117.5,10 C116.6,9.4 115.4,8.8 114.3,8.3 C112.3,7.1 110.3,5.9 108.4,4.6 C107.4,3.9 106.5,3.2 105.5,2.5 C104.8,1.6 103.9,0.8 103,0 Z" id="Shape_63_"></path>
            </g>
        </g>
    </g>
</svg>