<?xml version="1.0" encoding="UTF-8"?>
<svg width="500px" height="443px" viewBox="0 0 500 443" version="1.1" xmlns="http://www.w3.org/2000/svg" xmlns:xlink="http://www.w3.org/1999/xlink">
    <!-- Generator: Sketch 49.3 (51167) - http://www.bohemiancoding.com/sketch -->
    <title>BG image</title>
    <desc>Created with Sketch.</desc>
    <defs></defs>
    <g id="App" stroke="none" stroke-width="1" fill="none" fill-rule="evenodd">
        <g id="Dashboard-empty" transform="translate(-284.000000, -103.000000)">
            <g id="BG" transform="translate(200.000000, 65.000000)">
                <g id="BG-image" transform="translate(82.000000, 25.000000)">
                    <g id="thinking-girl" opacity="0.413552989" style="mix-blend-mode: luminosity;" transform="translate(158.000000, 249.000000)" fill-rule="nonzero">
                        <path d="M134.1,202.38 L168.7,202.38 C137.653752,199.366159 109.194185,183.775656 89.9407531,159.234709 C70.6873213,134.693762 62.3182085,103.341429 66.78,72.47 C54.8771539,126.351896 83.2144049,181.035382 134.1,202.38 Z" id="Shape" fill="#A4C639"></path>
                        <path d="M244.67,182.66 C228.753529,193.700947 210.278525,200.489228 191,202.38 L222.38,202.38 C229.674185,199.306725 236.633932,195.49344 243.15,191 C269.267064,172.963752 286.666782,144.841458 291.15,113.42 C284.980791,141.551895 268.370103,166.296389 244.67,182.66 Z" id="Shape" fill="#A4C639"></path>
                        <path d="M318.41,113.43 L271.53,113.43 C268.343317,113.396863 265.786863,110.786683 265.82,107.6 C265.853137,104.413317 268.463317,101.856863 271.65,101.89 L300.86,101.89 L315,86.26 C321.299169,79.3228681 323.286212,69.4898081 320.175002,60.6510471 C317.063791,51.8122861 309.3556,45.3919119 300.1,43.93 L83.28,9.84 C73.9634782,8.37364016 64.5983592,12.1692284 58.9315927,19.7081639 C53.2648263,27.2470993 52.2218673,37.2981779 56.22,45.84 L129.47,202.38 L209.73,202.38 L279.91,125 L318.41,125 C321.602206,125 324.19,122.412206 324.19,119.22 C324.19,116.027794 321.602206,113.44 318.41,113.44 L318.41,113.43 Z" id="Shape" fill="#A4C639"></path>
                        <path d="M337.56,125 L333.39,125 C330.197794,125 327.61,122.412206 327.61,119.22 C327.61,116.027794 330.197794,113.44 333.39,113.44 L337.56,113.44 C340.752206,113.44 343.34,116.027794 343.34,119.22 C343.34,122.412206 340.752206,125 337.56,125 Z" id="Shape" fill="#A4C639"></path>
                        <path d="M306.68,113.43 L271.53,113.43 C268.343317,113.396863 265.786863,110.786683 265.82,107.6 C265.853137,104.413317 268.463317,101.856863 271.65,101.89 L297,101.89 C267.777911,71.758076 223.202323,62.3568255 184.300476,78.1210155 C145.39863,93.8852056 119.94239,131.665444 119.94,173.64 C119.94,176.77 120.09,179.86 120.36,182.92 L129.47,202.38 L209.73,202.38 L279.91,125 L313.91,125 C311.755689,120.989329 309.3405,117.124358 306.68,113.43 Z" id="Shape" fill="#00AC65" opacity="0.2"></path>
                        <circle id="Oval" fill="#00AC65" opacity="0.2" cx="119.21" cy="86.92" r="10.87"></circle>
                        <path d="M243.56,136 L228.94,129 L228.2,124.64 C228.28,124.34 228.36,124.04 228.43,123.74 C228.5,123.44 228.53,123.29 228.58,123.07 C228.63,122.85 228.7,122.52 228.75,122.24 L229,122 C229.875071,122.537232 230.713575,123.131868 231.51,123.78 C232.88,124.9 234.44,128.08 234.44,128.08 C234.355215,126.421291 233.867846,124.808167 233.02,123.38 C232.362935,122.377058 231.461264,121.557983 230.4,121 C231.512803,121.050806 232.610173,121.28041 233.65,121.68 C236.82,122.89 239.93,127.68 239.93,127.68 C239.93,127.68 239.42,123.36 236.39,120.86 C235.345994,120.057279 234.207499,119.385601 233,118.86 C236.017904,116.126297 238.615887,112.962216 240.71,109.47 C241.23,108.6 241.71,107.68 242.19,106.72 C243.165033,104.72045 243.932382,102.626155 244.48,100.47 C244.920227,98.7177515 245.211267,96.9313682 245.35,95.13 C245.450592,93.8491888 245.470631,92.5633237 245.41,91.28 C245.355148,89.9092621 245.214876,88.5432782 244.99,87.19 C244.86,86.4 244.71,85.63 244.56,84.88 C244.48,84.52 244.4,84.19 244.32,83.88 L244.05,82.72 C243.93,82.26 243.8,81.82 243.67,81.37 C243.61,81.13 243.54,80.88 243.47,80.64 C243.31,80.11 243.15,79.64 242.98,79.1 L242.83,78.66 C242.64,78.1 242.43,77.56 242.23,77.03 C242.200956,76.9482796 242.167575,76.8681659 242.13,76.79 C241.91,76.21 241.67,75.66 241.43,75.11 C241.424405,75.0769014 241.424405,75.0430986 241.43,75.01 C241.17,74.44 240.91,73.89 240.64,73.35 C240.53,73.12 240.41,72.89 240.29,72.67 C240.58,72.52 240.86,72.37 241.12,72.21 C241.38,72.05 241.73,71.8 242.02,71.58 C242.563761,71.1516417 243.072077,70.6801121 243.54,70.17 C243.76,69.92 243.98,69.67 244.17,69.42 C244.718267,68.7124038 245.200297,67.9558847 245.61,67.16 C246.013509,66.3564801 246.348044,65.5201412 246.61,64.66 C246.8,64.02 246.88,63.66 246.88,63.66 C245.972785,65.0203733 244.773701,66.1613823 243.37,67 C242.611401,67.4477709 241.818992,67.8356166 241,68.16 C241.625316,67.5875809 242.206939,66.969189 242.74,66.31 C243.04,65.9166667 243.32,65.5166667 243.58,65.11 C243.66,65 243.73,64.88 243.8,64.77 C244,64.44 244.19,64.11 244.36,63.77 C244.36,63.67 244.47,63.58 244.51,63.48 C244.71593,63.0770636 244.899541,62.663105 245.06,62.24 C245.12,62.1 245.16,61.96 245.21,61.83 C245.32,61.52 245.42,61.22 245.51,60.92 C245.6,60.62 245.61,60.59 245.65,60.42 C245.74,60.05 245.83,59.68 245.9,59.3 C245.9,59.08 245.97,58.87 246,58.65 L246.09,57.91 C246.09,57.67 246.09,57.44 246.09,57.2 C246.09,56.96 246.09,56.82 246.09,56.63 C246.09,56.12 246.09,55.63 246.04,55.1 C246.04,55.01 246.04,54.91 246.04,54.82 C246.04,54.52 245.97,54.23 245.92,53.93 C245.92,53.82 245.92,53.72 245.87,53.61 C245.696014,52.6276987 245.431555,51.6635932 245.08,50.73 L245.02,50.57 C244.9,50.25 244.76,49.94 244.62,49.57 C243.554106,47.3051851 241.971704,45.3220444 240,43.78 C239.58,43.45 239.14,43.14 238.69,42.85 C238.52,42.74 238.35,42.66 238.18,42.56 C238.01,42.46 237.62,42.22 237.33,42.08 C237.04,41.94 236.9,41.89 236.69,41.79 C236.48,41.69 236.18,41.55 235.92,41.45 C235.66,41.35 235.47,41.29 235.24,41.22 L234.47,40.96 L233.78,40.79 L233,40.62 L232.29,40.52 C232.03,40.52 231.77,40.44 231.51,40.42 L230.8,40.42 L230.01,40.42 L229.3,40.42 C229.04,40.42 228.78,40.42 228.52,40.48 L227.82,40.56 L227.04,40.7 L226.35,40.84 C226.09,40.9 225.84,40.98 225.58,41.05 L224.92,41.26 C224.66,41.34 224.41,41.44 224.15,41.54 L223.52,41.8 L222.77,42.17 L222.17,42.48 L221.43,42.94 C221.25,43.06 221.06,43.17 220.88,43.3 C220.7,43.43 220.39,43.67 220.15,43.86 C219.91,44.05 219.82,44.1 219.66,44.24 C219.5,44.38 219.15,44.71 218.9,44.95 L218.53,45.31 C218.176051,45.6923606 217.842266,46.0929036 217.53,46.51 C217.19,46.94 216.88,47.39 216.59,47.84 C216.44,48.07 216.32,48.31 216.19,48.54 L215.84,49.15 C212.585386,46.8792753 208.79298,45.5002187 204.84,45.15 C194.15,44.22 180.28,46.78 167.24,57.44 C158.59,64.51 157.45,70.93 158.3,75.44 C158.3,75.66 158.39,75.88 158.44,76.09 C158.44,76.09 158.44,76.16 158.44,76.19 C158.44,76.39 158.55,76.58 158.6,76.77 L158.6,76.9 C158.649463,77.0800719 158.709568,77.2570496 158.78,77.43 C158.774343,77.4731487 158.774343,77.5168513 158.78,77.56 C158.84,77.73 158.91,77.9 158.97,78.06 C158.991009,78.1015359 159.007761,78.1450911 159.02,78.19 C159.09,78.35 159.15,78.5 159.22,78.65 L159.28,78.77 L159.49,79.2 L159.54,79.31 L159.75,79.7 L159.81,79.8 L160.01,80.15 L160.07,80.24 C160.14,80.35 160.2,80.46 160.27,80.55 C160.273303,80.5799091 160.273303,80.6100909 160.27,80.64 L160.46,80.91 L160.46,80.98 L160.63,81.22 L160.63,81.28 L160.77,81.47 C160.813617,81.5169959 160.853725,81.5671307 160.89,81.62 L160.98,81.73 L160.98,81.79 C160.98,81.79 151.15,90.57 161.98,125.46 C166.12,138.84 172.45,151.32 183.69,154.79 L171.69,188.79 C169.979893,185.803195 166.801725,183.960392 163.36,183.96 L155.73,183.96 C151.426143,183.956061 147.645627,186.816992 146.48,190.96 C146.431887,191.111101 146.391831,191.264651 146.36,191.42 C146.36,191.55 146.31,191.67 146.28,191.8 C146.25,191.93 146.22,192.15 146.2,192.33 C146.18,192.51 146.2,192.54 146.2,192.65 C146.2,192.94 146.2,193.23 146.2,193.53 C146.203265,195.315569 146.705488,197.06469 147.65,198.58 L145.65,198.58 L122.81,134.14 C121.938893,131.689595 119.620636,130.052001 117.02,130.05 L95.69,130.05 L132.79,202.24 L209.63,202.35 L255.68,151.56 C254.285078,144.768227 249.803727,139.014941 243.56,136 Z" id="Shape" fill="#1C1C1C" opacity="0.2"></path>
                        <polygon id="Shape" fill="#353535" points="166.69 192.2 185.39 139.06 170.12 133.69 152.44 183.92"></polygon>
                        <polygon id="Shape" fill="#FFFFFF" points="220.87 204.08 213.13 113.15 184.58 125.43 172.48 149.13 172.28 204.55"></polygon>
                        <path d="M180.11,206.16 L213.5,206.16 L212,180.9 L202.5,172.32 C200.469055,172.059979 198.438868,172.806371 197.06,174.32 C194.53,176.88 190.45,177.55 188.06,174.99 C185.67,172.43 182.26,170.57 179.5,171.27 C176.74,171.97 180.67,200.6 180.67,200.6 L180.11,206.16 Z" id="Shape" fill="#D1D1D1"></path>
                        <path d="M184.58,125.43 L181.35,107.93 L205.88,70.54 L213.13,113.15 L212.71,121.51 C212.254529,130.600263 204.98999,137.869123 195.9,138.33 L190.64,138.6 C188.98344,138.687239 187.365871,138.077791 186.178724,136.919135 C184.991577,135.76048 184.343022,134.15819 184.39,132.5 L184.58,125.43 Z" id="Shape" fill="#ECC19C"></path>
                        <path d="M210.35,97.16 C208.61,102.23 202.78,112.57 196.22,118.16 C191.52,122.16 186.99,122.68 184.03,122.4 L181.35,107.92 L191.29,92.76 L207.78,81.67 L210.35,97.16 Z" id="Shape" fill="#CF9E76"></path>
                        <path d="M154.92,175.92 L171.55,185.57 C172.148753,185.918697 172.365098,186.678113 172.04,187.29 L169.22,192.45 C169.046378,192.759364 168.75471,192.985085 168.411684,193.075554 C168.068659,193.166022 167.703609,193.113501 167.4,192.93 L150.66,182.84 C150.364918,182.665451 150.152192,182.379822 150.069483,182.047106 C149.986774,181.71439 150.040996,181.362401 150.22,181.07 L153.15,176.35 C153.527521,175.752827 154.310576,175.562594 154.92,175.92 Z" id="Shape" fill="#FFFFFF"></path>
                        <path d="M170.1,133 L164.85,165.86 C164.378568,168.810554 164.542212,171.827742 165.33,174.71 L168.15,185.09 L171.8,182.48 L170.1,133 Z" id="Shape" fill="#424242"></path>
                        <path d="M205.8,187.51 L206.04,206.16 L236.58,206.16 L235.58,203.21 L240.26,141.92 C240.950072,132.802328 235.991761,124.190734 227.76,120.21 L213.14,113.15 L205.25,142.78 L205.35,151 L202.56,168.47 C202.088568,171.420554 202.252212,174.437742 203.04,177.32 L205.8,187.51 Z" id="Shape" fill="#424242"></path>
                        <path d="M233.28,206.16 L231,201.1 L238.52,139.35 L216.3,168.24 C216.3,168.24 216.11,182.56 215.3,180.77 C214.49,178.98 213.02,170.97 213.02,170.97 L209.14,189 L207.32,206.12 L233.28,206.16 Z" id="Shape" fill="#353535"></path>
                        <path d="M205.8,187.51 L206.04,206.16 L210.26,206.16 C211.31,203.3 212.26,200.53 212.8,198.83 C214.25,194.01 212.58,183.98 211.96,180.9 C211.6,179.08 212.58,171.9 213.45,166.28 L214.59,159.28 L211,146.58 L205.26,151.38 L202.53,168.47 C202.058568,171.420554 202.222212,174.437742 203.01,177.32 L205.8,187.51 Z" id="Shape" fill="#1C1C1C"></path>
                        <path d="M182.35,206.16 L182.89,186.83 L180.52,178.14 C179.737053,175.256961 179.573465,172.240808 180.04,169.29 L184.04,144.07 L184.55,125.43 L183.66,120.58 L170.1,133 L167.37,206.12 L182.35,206.16 Z" id="Shape" fill="#424242"></path>
                        <path d="M169,185.05 C168.88,187.2 168,196.88 168,196.88 L167.8,206.16 L181.93,206.16 L181.28,197.09 L174,173.64 C172.640872,174.225877 171.188101,174.564518 169.71,174.64 C168.387052,174.825946 167.039207,174.587885 165.86,173.96 C165.86,173.96 169.13,182.89 169,185.05 Z" id="Shape" fill="#353535"></path>
                        <path d="M140.3,168.24 L147.93,168.24 C153.239076,168.239997 157.544481,172.540926 157.55,177.85 C157.55,180.401383 156.536467,182.848267 154.732367,184.652367 C152.928267,186.456467 150.481383,187.47 147.93,187.47 L140.3,187.47 C134.990926,187.464481 130.689997,183.159076 130.69,177.85 C130.69,172.542544 134.992544,168.24 140.3,168.24 Z" id="Shape" fill="#ECC19C"></path>
                        <path d="M173.35,160.86 L179.54,147.52 L182.48,154.05 L180,169.29 C179.533465,172.240808 179.697053,175.256961 180.48,178.14 L182.85,186.83 L182.41,202.38 C182.41,202.38 177.19,188.62 174.51,180.75 C171.83,172.88 173.35,160.86 173.35,160.86 Z" id="Shape" fill="#1C1C1C"></path>
                        <polygon id="Shape" fill="#292929" points="217.86 115.61 213.38 144.59 205.28 151.38 205.24 142.78 213.13 113.15"></polygon>
                        <polygon id="Shape" fill="#292929" points="181.36 122.71 178.43 145.03 182.48 154.05 184.07 144.07 184.58 125.43 183.69 120.58"></polygon>
                        <path d="M157.55,177.85 C157.548261,176.434443 157.230534,175.037127 156.62,173.76 C155.42851,176.046649 153.355265,177.747866 150.88,178.47 C145.77,180.19 134.55,180.68 131.15,174.92 C130.843566,175.866406 130.688326,176.855222 130.69,177.85 C130.689997,183.159076 134.990926,187.464481 140.3,187.47 L147.93,187.47 C150.481383,187.47 152.928267,186.456467 154.732367,184.652367 C156.536467,182.848267 157.55,180.401383 157.55,177.85 Z" id="Shape" fill="#DFB28B"></path>
                        <path d="M96.51,182.91 L159.33,182.91 C161.892601,182.91 163.97,184.987399 163.97,187.55 L163.97,190.31 L96.51,190.31 L96.51,182.91 Z" id="Shape" fill="#888888"></path>
                        <path d="M132.79,190.31 L34.16,190.31 L7.25,114.38 L101.54,114.38 C104.140636,114.382001 106.458893,116.019595 107.33,118.47 L132.79,190.31 Z" id="Shape" fill="#888888"></path>
                        <path d="M124.45,190.31 L25.82,190.31 L1.29,121.09 C0.731393746,119.555153 0.957667793,117.844222 1.89606369,116.507356 C2.83445959,115.170491 4.36666535,114.376242 6,114.38 L93.21,114.38 C95.8134926,114.372991 98.1364295,116.013892 99,118.47 L124.45,190.31 Z" id="Shape" fill="#D1D1D1"></path>
                        <path d="M89.45,123.13 L39.53,123.13 C38.4254305,123.13 37.53,122.234569 37.53,121.13 C37.53,120.025431 38.4254305,119.13 39.53,119.13 L89.45,119.13 C90.5545695,119.13 91.45,120.025431 91.45,121.13 C91.45,122.234569 90.5545695,123.13 89.45,123.13 Z" id="Shape" fill="#FFFFFF"></path>
                        <path d="M30.55,123.13 L11.28,123.13 C10.1754305,123.13 9.28,122.234569 9.28,121.13 C9.28,120.025431 10.1754305,119.13 11.28,119.13 L30.55,119.13 C31.6545695,119.13 32.55,120.025431 32.55,121.13 C32.55,122.234569 31.6545695,123.13 30.55,123.13 Z" id="Shape" fill="#FFFFFF"></path>
                        <path d="M118.9,174.64 C118.9,174.64 82.48,178.51 53.7,168.77 C36.2677494,162.803012 20.5230859,152.737539 7.79,139.42 L25.79,190.31 L124.42,190.31 L118.9,174.64 Z" id="Shape" fill="#C2C2C2"></path>
                        <rect id="Rectangle-path" fill="#A64429" x="11.01" y="190.31" width="239.36" height="16.3" rx="2.68"></rect>
                        <path d="M214.07,105 C215.363817,105.533549 216.468001,106.442672 217.24,107.61 C218.08382,109.039936 218.570883,110.652048 218.66,112.31 C218.66,112.31 217.1,109.13 215.73,108.01 C214.806443,107.27816 213.834201,106.609953 212.82,106.01 L214.07,105 Z" id="Shape" fill="#8B372F"></path>
                        <path d="M214.58,102 C216.726713,102.71601 218.750411,103.758215 220.58,105.09 C223.58,107.59 224.12,111.9 224.12,111.9 C224.12,111.9 221,107.14 217.83,105.9 C216.090366,105.190552 214.177776,105.019848 212.34,105.41 L214.58,102 Z" id="Shape" fill="#8B372F"></path>
                        <path d="M224.23,28 C227.58451,30.6239037 229.754506,34.476907 230.259409,38.7056987 C230.764311,42.9344903 229.562451,47.190081 226.92,50.53 C226.390421,51.1890729 225.812131,51.8074759 225.19,52.38 C226.006611,52.0457376 226.795705,51.6478472 227.55,51.19 C228.954944,50.3182643 230.150062,49.1470485 231.05,47.76 C231.05,47.76 229.85,54.14 224.26,56.9 C220.42,58.8 221.31,56.3 222.26,54.55 C215.267244,58.487544 206.43938,56.6357397 201.618403,50.2200512 C196.797425,43.8043626 197.474978,34.8098486 203.202679,29.1887874 C208.93038,23.5677262 217.936038,23.0593134 224.26,28 L224.23,28 Z" id="Shape" fill="#8B372F"></path>
                        <path d="M226.16,41.65 C227.456766,39.1915271 228.364227,36.5467345 228.85,33.81 C231.41438,39.290706 230.667533,45.7491917 226.92,50.5 C226.390421,51.1590729 225.812131,51.7774759 225.19,52.35 C226.006611,52.0157376 226.795705,51.6178472 227.55,51.16 C228.954944,50.2882643 230.150062,49.1170485 231.05,47.73 C231.05,47.73 229.85,54.11 224.26,56.87 C220.42,58.77 221.31,56.27 222.26,54.52 C220.926513,55.2761462 219.492102,55.8384623 218,56.19 C217.559994,53.9417552 217.408772,51.6465399 217.55,49.36 C217.55,49.36 222.25,49.38 226.16,41.65 Z" id="Shape" fill="#722D26"></path>
                        <path d="M201.71,30.66 C206.779412,24.1621169 215.955357,22.5779679 222.91,27 C223.09,28.33 223.13,30.65 222.22,31.93 C218.87,36.67 209.78,37.54 209.78,37.54 C211.416606,38.1915048 213.169228,38.5011914 214.93,38.45 C216.382255,38.2720854 217.824221,38.0184062 219.25,37.69 C219.25,37.69 215.51,41.28 208.34,41.36 C205.59,41.36 201.69,42.15 198.34,42.17 C197.928523,38.0415126 199.136832,33.9146165 201.71,30.66 Z" id="Shape" fill="#A03F35"></path>
                        <path d="M206,39.37 C206,39.37 224.92,45.78 229.13,71.37 C232.83,93.79 212.9,106.37 212.9,106.37 L202.87,51 L206,39.37 Z" id="Shape" fill="#B9493E"></path>
                        <path d="M177.75,139.84 C197.93,137.48 214.52,116.48 213.41,99.46 L206,39.37 L205.1,38.15 L158,42.85 L145.57,66.07 C145.57,66.07 135.73,74.85 146.57,109.74 C151.7,126.5 160.32,141.88 177.75,139.84 Z" id="Shape" fill="#ECC19C"></path>
                        <path d="M210.74,27.3 C212.289524,26.8372634 213.940476,26.8372634 215.49,27.3 C217.57,28.13 216.72,30.94 214.49,32.84 C212.26,34.74 207.75,34.57 206.67,32.2 C205.59,29.83 209.3,27.59 210.74,27.3 Z" id="Shape" fill="#B9493E"></path>
                        <path d="M177.07,93.38 C177.309918,95.3800998 179.124835,96.8076849 181.12517,96.5697333 C183.125504,96.3317817 184.554873,94.5182698 184.318889,92.517702 C184.082904,90.5171343 182.270799,89.0859827 180.27,89.32 C179.306661,89.432674 178.42778,89.9241331 177.827392,90.6858755 C177.227004,91.4476179 176.954485,92.4169976 177.07,93.38 Z" id="Shape" fill="#8B372F"></path>
                        <path d="M149,96.66 C149.239153,98.6590405 151.051795,100.086937 153.051259,99.8513525 C155.050724,99.6157681 156.481854,97.8056784 156.249839,95.8057968 C156.017825,93.8059152 154.210293,92.371556 152.21,92.6 C151.244846,92.7102256 150.363447,93.200644 149.76096,93.9626682 C149.158473,94.7246923 148.884607,95.6954504 149,96.66 Z" id="Shape" fill="#8B372F"></path>
                        <path d="M152.21,95.18 C152.274439,95.7427191 152.67159,96.2111716 153.21618,96.3668213 C153.76077,96.522471 154.345492,96.3346485 154.697569,95.8909742 C155.049646,95.4472999 155.099705,94.8351961 154.824392,94.3402133 C154.549079,93.8452304 154.002643,93.5649008 153.44,93.63 C152.672563,93.7187944 152.122106,94.412459 152.21,95.18 Z" id="Shape" fill="#FFFFFF"></path>
                        <path d="M172.37,78.53 C172.427003,78.2699703 172.507328,78.0156078 172.61,77.77 C172.856192,77.1038436 173.192666,76.4746367 173.61,75.9 C173.905988,75.5040932 174.241003,75.138926 174.61,74.81 C175.013137,74.4263162 175.459459,74.0907361 175.94,73.81 C176.19392,73.6588366 176.457867,73.5251923 176.73,73.41 C177.004853,73.2788988 177.293239,73.1782988 177.59,73.11 C177.886391,73.0170649 178.191184,72.9534269 178.5,72.92 C178.66,72.92 178.78,72.87 178.99,72.85 L179.41,72.85 C180.002676,72.8104894 180.597324,72.8104894 181.19,72.85 C181.76823,72.9012026 182.340594,73.0049646 182.9,73.16 C183.432482,73.2890794 183.948981,73.4768974 184.44,73.72 C184.883197,73.9228583 185.302444,74.1744063 185.69,74.47 C186.270582,74.8877114 186.771802,75.4058644 187.17,76 C187.320612,76.2249725 187.444766,76.4665697 187.54,76.72 C186.866807,76.0796299 186.084484,75.5648547 185.23,75.2 C184.834546,75.021194 184.426845,74.8708127 184.01,74.75 C183.550502,74.6166009 183.08286,74.5130516 182.61,74.44 C182.103088,74.3604102 181.592411,74.307006 181.08,74.28 C180.540411,74.250202 179.999589,74.250202 179.46,74.28 L179,74.28 L178.64,74.28 C178.389561,74.2981118 178.141617,74.3416696 177.9,74.41 C177.414318,74.510278 176.941377,74.6645707 176.49,74.87 C175.665891,75.2554099 174.901417,75.757201 174.22,76.36 C173.718414,76.808355 173.250485,77.2929957 172.82,77.81 C172.54,78.29 172.37,78.53 172.37,78.53 Z" id="Shape" fill="#8B372F"></path>
                        <path d="M159.27,82.89 C158.684223,83.5626539 158.011672,84.1544987 157.27,84.65 C156.50401,85.1700445 155.68223,85.6027369 154.82,85.94 C154.327739,86.139937 153.8192,86.2971827 153.3,86.41 C152.759234,86.5424831 152.206382,86.6195474 151.65,86.64 C151.088734,86.6637485 150.52647,86.636974 149.97,86.56 C149.447314,86.4849124 148.929688,86.3780477 148.42,86.24 C147.50355,85.9721579 146.638301,85.5530529 145.86,85 C145.551904,84.7720014 145.26416,84.5177156 145,84.24 C144.801791,84.027379 144.624321,83.7963322 144.47,83.55 C144.3267,83.3401283 144.221743,83.1065133 144.16,82.86 C144.338763,83.0206736 144.529295,83.1677506 144.73,83.3 C145.241389,83.6237878 145.784136,83.8951616 146.35,84.11 C147.133438,84.4172157 147.943533,84.6515409 148.77,84.81 C149.22,84.91 149.66,84.98 150.19,85.05 C150.424765,85.0914621 150.661895,85.1181811 150.9,85.13 C151.136238,85.1501361 151.373762,85.1501361 151.61,85.13 C152.568704,85.1207774 153.522596,84.993144 154.45,84.75 C154.91,84.64 155.34,84.5 155.76,84.37 C156.18,84.24 156.56,84.08 156.91,83.93 C157.63,83.64 158.21,83.36 158.62,83.16 C159.03,82.96 159.27,82.89 159.27,82.89 Z" id="Shape" fill="#8B372F"></path>
                        <path d="M180.69,93 L181.87,92.57 C182.2,92.44 182.57,92.29 182.94,92.12 C183.314406,91.9509362 183.675443,91.7537032 184.02,91.53 C184.194463,91.4248873 184.361521,91.3079469 184.52,91.18 C184.682951,91.0613096 184.839817,90.934482 184.99,90.8 C185.15,90.68 185.27,90.53 185.42,90.4 C185.57,90.27 185.67,90.12 185.79,90 C185.91,89.88 186.03,89.75 186.12,89.63 C186.21,89.51 186.3,89.42 186.37,89.33 L186.62,89.06 C186.62,89.06 186.62,89.19 186.62,89.43 C186.647762,89.7660288 186.617315,90.1043281 186.53,90.43 C186.489286,90.6441567 186.422104,90.8524207 186.33,91.05 C186.235484,91.2798325 186.11468,91.497951 185.97,91.7 C185.824877,91.9287749 185.650015,92.1372641 185.45,92.32 C185.250008,92.5173221 185.028641,92.6917326 184.79,92.84 C183.936369,93.3786178 182.919846,93.5982152 181.92,93.46 C181.48106,93.3993849 181.060997,93.2422884 180.69,93 Z" id="Shape" fill="#8B372F"></path>
                        <path d="M180.26,91.9 C180.353267,92.6663121 181.049236,93.2125183 181.815756,93.1209788 C182.582277,93.0294393 183.13005,92.3347026 183.040238,91.5679779 C182.950426,90.8012532 182.256925,90.251916 181.49,90.34 C180.721096,90.4338588 180.171887,91.1304161 180.26,91.9 Z" id="Shape" fill="#FFFFFF"></path>
                        <path d="M152.64,96.23 C152.323303,96.543637 151.940698,96.7827647 151.52,96.93 C150.560188,97.3122697 149.494329,97.3335869 148.52,96.99 C148.25857,96.8995807 148.007225,96.7822864 147.77,96.64 C147.535675,96.5054068 147.31758,96.344352 147.12,96.16 C146.932197,95.9933381 146.764405,95.8054103 146.62,95.6 C146.479475,95.4312616 146.364883,95.2425216 146.28,95.04 C146.126237,94.7562539 146.021434,94.4486055 145.97,94.13 C145.942712,94.0113289 145.922675,93.8911065 145.91,93.77 C146.017212,93.8304535 146.120729,93.8972384 146.22,93.97 L146.54,94.21 C146.64,94.31 146.8,94.38 146.94,94.49 C147.08,94.6 147.23,94.7 147.39,94.79 C147.55,94.88 147.72,95 147.9,95.08 C148.08,95.16 148.25,95.28 148.44,95.35 C148.625847,95.4336697 148.816131,95.5071127 149.01,95.57 C149.401442,95.7090387 149.802506,95.8193315 150.21,95.9 C150.61,95.98 151,96.04 151.35,96.08 L152.64,96.23 Z" id="Shape" fill="#8B372F"></path>
                        <path d="M203.4,95 C201.732758,84.9814001 197.866809,75.4565491 192.08,67.11 C192.08,67.11 198.77,62.66 209.32,66.11 L213.41,99.47 C214.41,114.47 201.56,132.64 184.63,138.29 C197.14,128.19 205.74,110.71 203.4,95 Z" id="Shape" fill="#DFB28B"></path>
                        <path d="M206,39.37 C206,39.37 185.39,54.82 185.31,60.62 C185.23,66.42 195.91,66.94 202.53,74 C206.574474,78.3452154 209.845065,83.3508766 212.2,88.8 L210.91,58.45 L206,39.37 Z" id="Shape" fill="#B9493E"></path>
                        <path d="M192.51,47.35 C188.875668,50.5682732 185.69946,54.2693638 183.07,58.35 C183.07,58.35 171.42,56.23 161.56,58.35 C155.670644,59.5729967 150.174545,62.2317343 145.56,66.09 C145.56,66.09 135,55 151.39,41.6 C164.44,30.94 178.31,28.38 188.99,29.31 C195.369342,29.8795272 201.222296,33.0832496 205.14,38.15 C205.14,38.15 200.66,40.29 192.51,47.35 Z" id="Shape" fill="#B9493E"></path>
                        <path d="M205.4,64.92 C205.87,64.72 206.34,64.51 206.78,64.27 C207.224192,64.0361809 207.651859,63.7722306 208.06,63.48 C208.4,63.24 208.71,63 209.06,62.77 L209.39,62.49 L209.89,62.07 L210.28,61.73 L210.62,61.4 L211,61 C214.23,57.71 214.56,54.9 214.56,54.9 C214.946096,57.2239312 214.881591,59.6004346 214.37,61.9 C214.01847,63.5726848 213.39701,65.176996 212.53,66.65 C212.53,66.65 218.81,68.65 221.97,65.55 C224.07,63.45 224.2,59.25 223.92,55.91 C226.538845,60.7387146 228.30795,65.9817603 229.15,71.41 C232.85,93.83 212.92,106.41 212.92,106.41 L208.42,81.68 C206.701965,78.9294152 204.722814,76.3508262 202.51,73.98 C199.07,70.32 194.51,68.42 190.99,66.63 C191,66.62 199.29,67.42 205.4,64.92 Z" id="Shape" fill="#A03F35"></path>
                        <path d="M212.11,100.76 L209.63,84.27 C210.46442,83.8809395 211.355661,83.627746 212.27,83.52 C215.657667,83.1156166 218.971921,84.7148591 220.763416,87.6183671 C222.55491,90.521875 222.497683,94.2013566 220.616761,97.0477474 C218.735838,99.8941383 215.373452,101.389539 212,100.88 L212.11,100.76 Z" id="Shape" fill="#ECC19C"></path>
                        <path d="M203.75,75.32 C206.842532,79.4958338 208.933097,84.3270564 209.86,89.44 L210.53,93.14 L211.53,72.65 L203.75,75.32 Z" id="Shape" fill="#A03F35"></path>
                        <path d="M195.81,56.49 C195.81,56.49 196.42,52.72 200.98,49.62 C205.54,46.52 208.68,46.01 210.89,47.3 C213.37,48.76 209.39,57.02 203.51,59.3 C198.34,61.22 195.27,60 195.81,56.49 Z" id="Shape" fill="#D35345"></path>
                        <path d="M160.27,38.8 C160.27,38.8 162.76,35.02 168.85,33.7 C174.94,32.38 178.31,33.23 179.85,35.6 C181.6,38.28 173.52,45.4 166.55,45.2 C160.43,45 158,42.36 160.27,38.8 Z" id="Shape" fill="#D35345"></path>
                        <path d="M143.59,54.17 C145.66,48.17 153.04,42.33 153.04,42.33 C153.04,42.33 148.8,49.12 153.94,50.03 C159.08,50.94 180.01,49.03 185.86,41.89 C191.71,34.75 186.7,31.89 186.7,31.89 C190.077834,32.0102718 193.41844,32.6372674 196.61,33.75 C199.412574,34.8458824 201.902435,36.6145422 203.86,38.9 C199.834014,41.3902128 196.035914,44.2312584 192.51,47.39 C188.875668,50.6082732 185.69946,54.3093638 183.07,58.39 C183.07,58.39 171.42,56.27 161.56,58.39 C155.670644,59.6129967 150.174545,62.2717343 145.56,66.13 C143.969974,64.2782379 142.897141,62.0394315 142.45,59.64 C142.600833,57.7763228 142.983796,55.9387735 143.59,54.17 Z" id="Shape" fill="#A03F35"></path>
                        <path d="M183.12,138.75 C180.97,132.06 177.29,120.66 177.04,120.58 C176.79,120.5 159.44,124.69 159.44,124.69 C159.44,124.69 160.11,129.62 162.98,131.48 C165.85,133.34 171.47,133.04 171.47,133.04 L173.92,140.04 C175.198857,140.079512 176.478895,140.026038 177.75,139.88 C179.566815,139.644456 181.362333,139.266628 183.12,138.75 Z" id="Shape" fill="#DFB28B"></path>
                        <path d="M204.61,190.42 C204.316667,190.42 204.026667,190.42 203.74,190.42 C198.93676,190.11882 194.760332,187.019801 193.08,182.51 L173.41,130.59 C173.359439,130.451467 173.22747,130.359489 173.08,130.36 L166.46,130.36 C164.55136,130.360002 162.721038,129.601114 161.372363,128.250563 C160.023689,126.900013 159.267345,125.068639 159.27,123.16 C159.27,119.189073 162.489073,115.97 166.46,115.97 L173.08,115.97 C179.201712,115.990619 184.680746,119.7731 186.87,125.49 L204.87,173.14 L212.29,159.53 L225,166.39 L215.38,184 C213.255092,187.968554 209.11159,190.438497 204.61,190.42 Z" id="Shape" fill="#F0D0B4"></path>
                        <path d="M234.15,130.49 C232.228613,129.533252 230.005773,129.379277 227.970822,130.06197 C225.935872,130.744663 224.255633,132.208059 223.3,134.13 L205.13,170.56 L208.88,169.02 L219.6,175.62 L219.69,177.62 L237.78,141.33 C239.76112,137.333537 238.138314,132.487473 234.15,130.49 Z" id="Shape" fill="#292929"></path>
                        <path d="M237.53,137.7 C237.05,140.5 233.97,142.32 230.65,141.76 C227.33,141.2 225.03,138.46 225.51,135.65 C225.99,132.84 229.06,131.03 232.38,131.59 C235.7,132.15 238,134.89 237.53,137.7 Z" id="Shape" fill="#5D5D5D"></path>
                        <path d="M208.67,163.15 L224.85,173.55 C225.437435,173.926468 225.619079,174.701777 225.26,175.3 L222.2,180.3 C222.014951,180.601057 221.715317,180.813809 221.370086,180.889269 C221.024855,180.964729 220.663781,180.896395 220.37,180.7 L204.1,169.87 C203.814107,169.680763 203.61608,169.384745 203.550288,169.048268 C203.484497,168.71179 203.55644,168.362984 203.75,168.08 L206.89,163.5 C207.293504,162.924925 208.078801,162.770513 208.67,163.15 Z" id="Shape" fill="#FFFFFF"></path>
                        <path d="M204.61,190.42 C207.109416,190.43344 209.552748,189.679497 211.61,188.26 C199.96,188.14 195.88,179.74 195.88,179.74 L175.11,125.13 C175.11,125.13 168.22,124.81 164.62,124.36 C162.636579,123.947458 160.844244,122.893143 159.52,121.36 C158.957736,123.521439 159.431816,125.821435 160.802974,127.584353 C162.174133,129.347272 164.286664,130.372917 166.52,130.36 L173.14,130.36 C173.28747,130.359489 173.419439,130.451467 173.47,130.59 L193.14,182.51 C194.820332,187.019801 198.99676,190.11882 203.8,190.42 C204.053333,190.42 204.323333,190.42 204.61,190.42 Z" id="Shape" fill="#ECC19C"></path>
                        <path d="M150.8,172.7 C150.8,174.64 147.68,176.22 143.8,176.22 C139.92,176.22 136.8,174.64 136.8,172.7 C136.8,170.76 139.92,169.17 143.8,169.17 C147.68,169.17 150.8,170.75 150.8,172.7 Z" id="Shape" fill="#F0D0B4"></path>
                        <path d="M178.78,119.74 C178.78,121.53 175.65,122.98 171.78,122.98 C167.91,122.98 164.78,121.53 164.78,119.74 C164.78,117.95 167.91,116.49 171.78,116.49 C175.65,116.49 178.78,117.94 178.78,119.74 Z" id="Shape" fill="#F5E0CD"></path>
                        <circle id="Oval" fill="#A4C639" cx="285.84" cy="26.98" r="22.98"></circle>
                        <circle id="Oval" fill="#A4C639" transform="translate(238.619102, 11.424977) rotate(-80.060000) translate(-238.619102, -11.424977) " cx="238.619102" cy="11.4249769" r="9.43"></circle>
                    </g>
                    <text id="Hmm..-Your-dashboard" opacity="0.390285326" font-family="Roboto-Light, Roboto" font-size="20" font-weight="300" fill="#343838">
                        <tspan x="160.932617" y="157">Hmm.. Your dashboard is empty. Lets </tspan>
                        <tspan x="169.311523" y="181">go ahead and change that! Click the </tspan>
                        <tspan x="237.250977" y="205">button in the corner!</tspan>
                    </text>
                    <g id="arrow" opacity="0.522588315" style="mix-blend-mode: luminosity;" transform="translate(74.329955, 66.585184) scale(-1, 1) rotate(7.000000) translate(-74.329955, -66.585184) translate(7.329955, 8.585184)" fill="#9DC44D" fill-rule="nonzero">
                        <path d="M0,116 C0,116 0,115.330273 0.0814102564,114.078173 C0.162820513,112.826074 0.195384615,110.977044 0.472179487,108.632998 C0.748974359,106.288952 1.00948718,103.420771 1.61192308,100.174049 C1.85615385,98.5434083 2.19807692,96.8254117 2.5725641,95.0055002 C2.94705128,93.1855886 3.40294872,91.2783213 3.92397436,89.2982575 C5.04460662,85.015181 6.41415706,80.7872499 8.02705128,76.631673 C9.86487744,71.96285 12.0404111,67.4058759 14.5398718,62.9896159 C15.1585897,61.8103132 15.8587179,60.6746884 16.5914103,59.5245043 C17.3241026,58.3743202 17.9916667,57.2095768 18.8220513,56.0885113 L21.1666667,52.6670775 L23.804359,49.3329995 C27.4527204,44.8486545 31.5275295,40.654543 35.9833333,36.7974487 C40.5018892,32.9732487 45.4075329,29.5322116 50.6371795,26.5185881 C55.649836,23.6060769 60.959799,21.1247643 66.4958974,19.1079082 C71.6135645,17.1667022 76.8944654,15.5894089 82.2894872,14.3906975 C84.8620513,13.8520036 87.3369231,13.2987505 89.7792308,12.9347682 L93.3612821,12.3669558 L96.829359,11.9592956 C99.0925641,11.682669 101.274359,11.5079575 103.342179,11.3914832 C105.41,11.2750089 107.461538,11.1002973 109.22,11.0711788 C112.899744,10.9110265 116.12359,11.0711788 118.745,11.0711788 C121.36641,11.0711788 123.450513,11.3623646 124.850769,11.4351611 L127,11.6535505 L124.867051,11.9884142 L118.858974,12.8474125 C116.28641,13.2696319 113.160256,13.7355293 109.627051,14.3906975 C107.86859,14.6964426 105.996154,15.0458656 104.042308,15.4972037 C102.088462,15.9485418 100.004359,16.3125241 97.9039744,16.8657772 L94.6475641,17.6374197 L91.3911538,18.5546551 C89.1279487,19.1370268 86.8321795,19.8649914 84.4712821,20.6075154 C79.5771445,22.1745615 74.7924903,24.0026065 70.1430769,26.0818094 C67.7170513,27.1155191 65.3561538,28.3384997 62.9464103,29.5323617 C60.5366667,30.7262237 58.2246154,32.1093565 55.9288462,33.5652857 C51.2738631,36.439828 46.87536,39.6330458 42.7729487,43.1161816 C38.6771021,46.6289215 34.8681913,50.3997399 31.3755128,54.3996333 C27.991791,58.3143243 24.8918596,62.4187352 22.0947436,66.6876762 C19.2942308,70.8225153 16.9821795,75.0592694 14.8166667,79.0921934 C12.6511538,83.1251175 10.8601282,87.0706858 9.31333333,90.7396275 C8.49923077,92.5740983 7.78282051,94.3648913 7.11525641,96.0683285 C6.44769231,97.7717658 5.76384615,99.3732879 5.22653846,100.916573 C4.10307692,103.988584 3.1424359,106.74029 2.37717949,108.909625 L0.635,114.165529 C0.227948718,115.359391 0,116 0,116 Z" id="Shape"></path>
                        <path d="M103,0 C104.271533,0.00858600771 105.541687,0.07675814 106.805223,0.204235294 C108.046411,0.306352941 109.271269,0.481411765 110.479794,0.656470588 C112.896846,1.00658824 115.264903,1.50258824 117.583966,2.11529412 C118.743497,2.40705882 119.91936,2.68423529 121.046229,3.01976471 C122.173097,3.35529412 123.332629,3.67623529 124.443166,4.02635294 C125.553703,4.37647059 126.680571,4.77035294 127.791109,5.14964706 C128.901646,5.52894118 129.995851,5.952 131.057394,6.36047059 C133.462988,7.29724461 134.615119,9.76078289 133.670423,11.9477647 C133.491599,12.3250961 133.255282,12.6785542 132.968171,12.9981176 L132.804857,13.1877647 C132.004617,14.0630588 131.171714,14.88 130.32248,15.7407059 C129.473246,16.6014118 128.60768,17.3891765 127.742114,18.2061176 C126.876549,19.0230588 125.97832,19.8254118 125.06376,20.5985882 C124.1492,21.3717647 123.218309,22.1595294 122.254754,22.9035294 C120.343977,24.3623529 118.351543,25.8211765 116.244789,27.28 C115.183246,27.9510588 114.121703,28.6075294 112.978503,29.2348235 C111.835303,29.8621176 110.708434,30.4602353 109.467246,31 C109.863437,29.8509481 110.326797,28.7212408 110.855417,27.6155294 C111.361691,26.5214118 111.933291,25.4856471 112.48856,24.4352941 C113.648091,22.3637647 114.921943,20.3797647 116.277451,18.4541176 C116.94704,17.4912941 117.649291,16.5430588 118.367874,15.5364706 C119.086457,14.5298824 119.837703,13.6983529 120.572617,12.7792941 C121.307531,11.8602353 122.107771,10.9849412 122.908011,10.1242353 C123.708251,9.26352941 124.541154,8.37364706 125.325063,7.52752941 L127.072526,14.3548235 C125.994651,13.9025882 124.900446,13.4795294 123.80624,12.9981176 C122.712034,12.5167059 121.666823,12.0644706 120.539954,11.5392941 C119.413086,11.0141176 118.645509,10.4597647 117.698286,9.90541176 C116.751063,9.35105882 115.558869,8.75294118 114.529989,8.24235294 C112.504891,7.07529412 110.512457,5.83529412 108.585349,4.49317647 C107.621794,3.80752941 106.65824,3.12188235 105.727349,2.36329412 C104.774275,1.61704313 103.863999,0.828273851 103,0 Z" id="Shape"></path>
                    </g>
                </g>
            </g>
        </g>
    </g>
</svg>