<?xml version="1.0" encoding="UTF-8"?>
<svg width="114px" height="27px" viewBox="0 0 114 27" version="1.1" xmlns="http://www.w3.org/2000/svg" xmlns:xlink="http://www.w3.org/1999/xlink">
    <!-- Generator: Sketch 49.3 (51167) - http://www.bohemiancoding.com/sketch -->
    <title>logo-farvet</title>
    <desc>Created with Sketch.</desc>
    <defs></defs>
    <g id="App" stroke="none" stroke-width="1" fill="none" fill-rule="evenodd">
        <g id="Dashboard-empty" transform="translate(-43.000000, -20.000000)" fill="#00A5CF" fill-rule="nonzero">
            <g id="Sidebar">
                <g id="logo-farvet" transform="translate(43.000000, 20.000000)">
                    <path d="M12.4196645,16.4705136 L5.0397878,16.4705136 L5.0397878,26.6575777 L0,26.6575777 L0,1.72923272 L15.9257294,1.72923272 L15.9257294,5.88966392 L5.0397878,5.88966392 L5.0397878,12.3272036 L12.4196645,12.3272036 L12.4196645,16.4705136 Z M26.1564987,12.7723526 C25.4957232,12.6810395 24.9133535,12.6353836 24.4093722,12.6353836 C22.5726404,12.6353836 21.3687031,13.2688586 20.7975243,14.5358275 L20.7975243,26.6575777 L15.9425287,26.6575777 L15.9425287,8.13253012 L20.5287356,8.13253012 L20.66313,10.3411541 C21.6374938,8.64044805 22.9870235,7.7901078 24.7117595,7.7901078 C25.2493396,7.7901078 25.7533133,7.86429855 26.2236958,8.01268231 L26.1564987,12.7723526 Z M27.1308576,17.2238427 C27.1308576,15.3861671 27.4780396,13.7482634 28.1724138,12.3100824 C28.866788,10.8719015 29.8663359,9.75904009 31.1710875,8.97146481 C32.4758391,8.18388952 33.9905602,7.7901078 35.7152962,7.7901078 C38.1680052,7.7901078 40.1699009,8.55484335 41.7210433,10.0843373 C43.2721857,11.6138313 44.1373407,13.6911727 44.316534,16.3164236 L44.3501326,17.5833862 C44.3501326,20.4255056 43.5717733,22.7054448 42.0150309,24.423272 C40.4582886,26.1410992 38.3695976,27 35.7488948,27 C33.128192,27 31.036701,26.1439527 29.474359,24.4318326 C27.912017,22.7197124 27.1308576,20.3912639 27.1308576,17.4464172 L27.1308576,17.2238427 Z M31.9858532,17.5833862 C31.9858532,19.3411629 32.3106363,20.685157 32.9602122,21.615409 C33.6097881,22.545661 34.5393397,23.01078 35.7488948,23.01078 C36.9248511,23.01078 37.8432033,22.5513679 38.5039788,21.6325301 C39.1647543,20.7136923 39.495137,19.2441445 39.495137,17.2238427 C39.495137,15.5003084 39.1647543,14.1648747 38.5039788,13.2175016 C37.8432033,12.2701284 36.9136517,11.796449 35.7152962,11.796449 C34.5281402,11.796449 33.6097881,12.2672749 32.9602122,13.208941 C32.3106363,14.1506071 31.9858532,15.6087409 31.9858532,17.5833862 Z M51.8090186,8.13253012 L51.9602122,10.2726696 C53.2593641,8.61762015 55.0008734,7.7901078 57.1847922,7.7901078 C59.1111206,7.7901078 60.5446459,8.36651294 61.4854111,9.51934052 C62.4261764,10.6721681 62.9077511,12.3956766 62.9301503,14.6899176 L62.9301503,26.6575777 L58.0751547,26.6575777 L58.0751547,14.8097654 C58.0751547,13.759665 57.8511661,12.997783 57.403183,12.5240964 C56.9551999,12.0504098 56.2104386,11.8135701 55.1688771,11.8135701 C53.802528,11.8135701 52.7777814,12.4070962 52.0946065,13.5941661 L52.0946065,26.6575777 L47.239611,26.6575777 L47.239611,8.13253012 L51.8090186,8.13253012 Z M72.4217507,3.57831325 L72.4217507,8.13253012 L75.5296198,8.13253012 L75.5296198,11.7622067 L72.4217507,11.7622067 L72.4217507,21.0076094 C72.4217507,21.6924575 72.550544,22.1832579 72.8081344,22.4800254 C73.0657248,22.7767929 73.5584994,22.9251744 74.2864721,22.9251744 C74.8240522,22.9251744 75.3000275,22.8852255 75.714412,22.8053266 L75.714412,26.554851 C74.7624474,26.8516185 73.7824982,27 72.7745358,27 C69.3698621,27 67.6339528,25.2479566 67.5667551,21.7438174 L67.5667551,11.7622067 L64.9124668,11.7622067 L64.9124668,8.13253012 L67.5667551,8.13253012 L67.5667551,3.57831325 L72.4217507,3.57831325 Z M95.7559682,26.6575777 L91.7141632,26.6575777 L90.8841733,26.6575777 L90.8841733,16.7958148 L95.7559682,16.7958148 L95.7559682,26.6575777 Z M90.3129973,10.5808497 C90.3129973,9.838931 90.5565844,9.22828396 91.0437666,8.7488903 C91.5309488,8.26949664 92.1945138,8.02980342 93.0344828,8.02980342 C93.8632518,8.02980342 94.5240177,8.26949664 95.0167993,8.7488903 C95.5095809,9.22828396 95.7559682,9.838931 95.7559682,10.5808497 C95.7559682,11.3341826 95.5067812,11.9505366 95.0083996,12.4299302 C94.5100181,12.9093239 93.8520525,13.1490171 93.0344828,13.1490171 C92.2169131,13.1490171 91.5589474,12.9093239 91.0605659,12.4299302 C90.5621843,11.9505366 90.3129973,11.3341826 90.3129973,10.5808497 Z M104.877984,26.6575777 L100.006189,26.6575777 L100.006189,8.57767914 L104.877984,8.57767914 L104.877984,26.6575777 Z M114,26.6575777 L109.128205,26.6575777 L109.128205,0.359543437 L114,0.359543437 L114,26.6575777 Z M80.0318302,26.6575777 L80.0318302,11.7622067 L77.3271441,11.7622067 L77.3271441,8.13253012 L80.0318302,8.13253012 L80.0318302,6.55738744 C80.0318302,4.48001499 80.6169999,2.86779269 81.7873563,1.72067216 C82.9577128,0.573551635 84.5956277,0 86.7011494,0 C87.3731244,0 88.1962816,0.11413966 89.1706454,0.342422321 L89.1202476,4.17755231 C88.7170624,4.07482513 88.2242883,4.02346227 87.6419098,4.02346227 C85.8163777,4.02346227 84.9036251,4.89663048 84.9036251,6.64299302 L84.9036251,8.13253012 L88.515473,8.13253012 L88.515473,11.7622067 L84.9036251,11.7622067 L84.9036251,26.6575777 L80.0318302,26.6575777 Z" id="FrontFill-Copy-4"></path>
                </g>
            </g>
        </g>
    </g>
</svg>