<?xml version="1.0" encoding="UTF-8"?>
<svg width="21px" height="28px" viewBox="0 0 21 28" version="1.1" xmlns="http://www.w3.org/2000/svg" xmlns:xlink="http://www.w3.org/1999/xlink">
    <!-- Generator: Sketch 49.3 (51167) - http://www.bohemiancoding.com/sketch -->
    <title>Shape</title>
    <desc>Created with Sketch.</desc>
    <defs></defs>
    <g id="App" stroke="none" stroke-width="1" fill="none" fill-rule="evenodd">
        <g id="Dashboard" transform="translate(-910.000000, -138.000000)" fill="#343838" fill-rule="nonzero">
            <g id="Group-3" transform="translate(263.000000, 118.000000)">
                <path d="M665.373715,23.5 L649.626285,23.5 C648.175828,23.5 647,24.6758278 647,26.1262849 L647,27 L668,27 L668,26.1262849 C668,24.6758278 666.824172,23.5 665.373715,23.5 Z M660.78928,21.7525698 L661.174743,24.5124816 L653.825257,24.5124816 L654.195301,21.7525698 L660.773862,21.7525698 L660.78928,21.7525698 Z M661,20 L654,20 C653.252042,20.0132232 652.621487,20.5614377 652.504405,21.3002937 L651.990455,24.9596182 C651.933007,25.2889278 652.02701,25.6265923 652.246359,25.8788441 C652.465709,26.1310958 652.787049,26.2710756 653.121145,26.2599119 L661.858297,26.2599119 C662.192393,26.2710756 662.513733,26.1310958 662.733083,25.8788441 C662.952432,25.6265923 663.046435,25.2889278 662.988987,24.9596182 L662.475037,21.3002937 C662.359385,20.5688971 661.740126,20.0230004 661,20 Z M665.815712,28.7371512 L649.189427,28.7371512 C648.737644,28.7286004 648.30401,28.9147887 647.999076,29.2482494 C647.694141,29.5817101 647.547371,30.030222 647.596182,30.479442 L649.0558,46.2577093 C649.163963,47.2347494 649.979746,47.9801681 650.962555,48 L664.063142,48 C665.045951,47.9801681 665.861734,47.2347494 665.969897,46.2577093 L667.403818,30.4948605 C667.459055,30.0436866 667.315732,29.5907516 667.011005,29.2534818 C666.706279,28.9162119 666.270159,28.7278213 665.815712,28.7371512 Z M653.99486,44.4845815 L651.373715,44.4845815 L650.5,32.2525698 L654,32.2525698 L653.99486,44.4845815 Z M659.24743,44.4845815 L655.737151,44.4845815 L655.737151,32.2525698 L659.237151,32.2525698 L659.24743,44.4845815 Z M663.621145,44.4845815 L661,44.4845815 L661,32.2525698 L664.5,32.2525698 L663.621145,44.4845815 Z" id="Shape"></path>
            </g>
        </g>
    </g>
</svg>