<?xml version="1.0" encoding="UTF-8"?>
<svg width="18px" height="24px" viewBox="0 0 18 24" version="1.1" xmlns="http://www.w3.org/2000/svg" xmlns:xlink="http://www.w3.org/1999/xlink">
    <!-- Generator: Sketch 49.3 (51167) - http://www.bohemiancoding.com/sketch -->
    <title>Shape</title>
    <desc>Created with Sketch.</desc>
    <defs></defs>
    <g id="App" stroke="none" stroke-width="1" fill="none" fill-rule="evenodd">
        <g id="Dashboard" transform="translate(-20.000000, -155.000000)" fill="#FFFFFF" fill-rule="nonzero">
            <g id="Sidebar">
                <g id="Section" transform="translate(0.000000, 155.000000)">
                    <path d="M35.7488987,3 L22.2511013,3 C21.0078524,3 20,4.00785239 20,5.25110132 L20,6 L38,6 L38,5.25110132 C38,4.00785239 36.9921476,3 35.7488987,3 Z M31.8193833,1.50220264 L32.1497797,3.86784141 L25.8502203,3.86784141 L26.1674009,1.50220264 L31.8061674,1.50220264 L31.8193833,1.50220264 Z M32,0 L26,0 C25.358893,0.011334174 24.8184173,0.481232328 24.7180617,1.11453744 L24.277533,4.25110132 C24.228292,4.53336668 24.3088658,4.82279344 24.4968795,5.0390092 C24.6848932,5.25522496 24.9603277,5.37520769 25.246696,5.36563877 L32.7356828,5.36563877 C33.0220512,5.37520769 33.2974856,5.25522496 33.4854993,5.0390092 C33.6735131,4.82279344 33.7540869,4.53336668 33.7048458,4.25110132 L33.2643172,1.11453744 C33.165187,0.487626125 32.6343941,0.0197146115 32,1.4672551e-16 Z M36.1277533,7.48898678 L21.876652,7.48898678 C21.4894093,7.48165752 21.1177231,7.64124744 20.8563506,7.92707092 C20.594978,8.2128944 20.4691749,8.59733313 20.5110132,8.98237885 L21.7621145,22.5066079 C21.8548258,23.344071 22.5540681,23.9830012 23.3964758,24 L34.6255507,24 C35.4679584,23.9830012 36.1672006,23.344071 36.2599119,22.5066079 L37.4889868,8.99559471 C37.5363328,8.6088742 37.4134842,8.22064425 37.1522903,7.93155581 C36.8910963,7.64246737 36.5172792,7.48098968 36.1277533,7.48898678 Z M25.9955947,20.9867841 L23.7488987,20.9867841 L23,10.5022026 L26,10.5022026 L25.9955947,20.9867841 Z M30.4977974,20.9867841 L27.4889868,20.9867841 L27.4889868,10.5022026 L30.4889868,10.5022026 L30.4977974,20.9867841 Z M34.246696,20.9867841 L32,20.9867841 L32,10.5022026 L35,10.5022026 L34.246696,20.9867841 Z" id="Shape"></path>
                </g>
            </g>
        </g>
    </g>
</svg>